<svg xmlns="http://www.w3.org/2000/svg" viewBox="0 0 250 250">
  <g id="Layer_x0020_1">
  <path fill="currentColor" d="M72.97 183.79l0 -68.99c-0.11,-8 -6.63,-14.44 -14.64,-14.44 -8,0 -14.53,6.44 -14.64,14.44l0 68.99c0.11,8 6.64,14.44 14.64,14.44 8.01,0 14.53,-6.44 14.64,-14.44l0 0zm-37.13 -12.58l0 -43.83c-3.54,1.49 -6.68,3.82 -9.13,6.77 -3.54,4.25 -5.48,9.61 -5.48,15.14 0,5.54 1.94,10.9 5.48,15.15 2.45,2.95 5.59,5.28 9.13,6.77l0 0zm141.02 -56.41l0 68.99c0.11,8 6.63,14.44 14.64,14.44 8,0 14.53,-6.44 14.63,-14.44l0.01 -68.99c-0.11,-8 -6.64,-14.44 -14.64,-14.44 -8.01,0 -14.53,6.44 -14.64,14.44l0 0zm37.13 56.41c3.54,-1.49 6.68,-3.82 9.13,-6.77 3.54,-4.25 5.48,-9.61 5.48,-15.15 0,-5.53 -1.94,-10.89 -5.48,-15.14 -2.45,-2.95 -5.59,-5.28 -9.13,-6.77l0 43.83zm-19.54 -78.71c4.32,0.58 8.38,2.4 11.69,5.25l0 -13.24c0,-44.85 -36.38,-81.22 -81.23,-81.22 -44.84,0 -81.22,36.37 -81.22,81.22l0 13.24c3.31,-2.85 7.37,-4.67 11.69,-5.25l0 -7.99c0,-38.4 31.14,-69.53 69.53,-69.53 38.4,0 69.54,31.13 69.54,69.53l0 7.99 0 0zm-28.75 134.02c-2.23,-2.24 -5.27,-3.5 -8.43,-3.5 0,0 0,0 0,0l-29.74 0c-6.59,0 -11.94,5.34 -11.94,11.93 0,6.59 5.35,11.93 11.94,11.93l29.74 0c5.07,-0.01 9.58,-3.22 11.26,-8l14.6 0c6.78,-0.01 12.28,-5.51 12.3,-12.3l0 -20.65c-1.3,0.24 -2.62,0.35 -3.93,0.35 -1.31,0 -2.63,-0.11 -3.92,-0.34l0 20.64c-0.02,2.45 -2,4.43 -4.45,4.45l-14.6 0c-0.59,-1.7 -1.56,-3.24 -2.83,-4.51l0 0z"/>
 </g>
</svg>
