<svg xmlns="http://www.w3.org/2000/svg" viewBox="0 0 250 250">
  <g id="Layer_x0020_1">
  <path fill="currentColor" d="M223.49 25.44l-19.57 0c-3.92,0 -7.12,3.2 -7.12,7.12 0,3.91 3.2,7.12 7.12,7.12l19.57 0c4.98,0 9.25,4.27 9.25,9.25 0,0 0,0 0,0l0 26.33 -215.65 0 0 -26.33c0,-4.98 4.27,-9.25 9.25,-9.25l19.57 0c3.92,0 7.12,-3.21 7.12,-7.12 0,-3.92 -3.2,-7.12 -7.12,-7.12l-19.57 0c-13.17,0 -23.49,10.68 -23.49,23.49l0 170.82c0,13.16 10.68,23.48 23.49,23.48l197.15 0c13.17,0 23.49,-10.67 23.49,-23.48l0 -170.82c0,-13.17 -10.68,-23.49 -23.49,-23.49zm-151.96 187.9l106.77 0c5.69,0 9.96,-4.27 9.96,-9.96l0 -66.91c0,-5.69 -4.63,-9.96 -9.96,-9.96l-29.54 0 0 -13.17c0,-5.69 -4.63,-9.96 -9.97,-9.96l-27.4 0c-5.69,0 -9.96,4.62 -9.96,9.96l0 13.17 -29.9 0c-5.69,0 -9.96,4.62 -9.96,9.96l0 0 0 66.91c0,5.33 4.27,9.96 9.96,9.96zm4.27 -14.23l0 -43.06c9.26,5.33 24.2,10.32 49.12,10.32 24.91,0 39.85,-4.63 49.11,-10.32l0 43.06 -98.23 0zm95.38 -58.37c-5.34,4.63 -17.79,11.39 -46.26,11.39 -28.47,0 -40.93,-6.76 -46.27,-11.39l92.53 0zm-55.87 -23.13l18.86 0 0 8.9 -18.86 0 0 -8.9zm54.09 -110.68l6.41 0c3.91,0 7.11,3.21 7.11,7.12l0 36.66c0,3.91 -3.2,7.11 -7.11,7.11l-6.41 0c-3.92,0 -7.12,-3.2 -7.12,-7.11l0 -36.66c0,-3.91 3.2,-7.12 7.12,-7.12zm-95.37 0l6.4 0c3.92,0 7.12,3.21 7.12,7.12l0 36.66c0,3.91 -3.2,7.11 -7.12,7.11l-6.4 0c-3.92,0 -7.12,-3.2 -7.12,-7.11l0 -36.66c0,-3.91 3.2,-7.12 7.12,-7.12zm34.16 32.75l33.1 0c3.91,0 7.11,-3.21 7.11,-7.12 0,-3.92 -3.2,-7.12 -7.11,-7.12l-33.1 0c-3.92,0 -7.12,3.2 -7.12,7.12 0,3.91 3.2,7.12 7.12,7.12zm124.55 180.07c0,4.98 -4.27,9.25 -9.25,9.25 0,0 0,0 0,0l-197.15 0c-4.98,0 -9.25,-4.27 -9.25,-9.25l0 0 0 -130.25 215.65 0 0 130.25z"/>
 </g>
</svg>
