<svg xmlns="http://www.w3.org/2000/svg" viewBox="0 0 250 250">
 <g id="Layer_x0020_1">
  <path fill="currentColor" d="M94.88 146.85c0.67,-5.47 -15.51,-26.19 -18.48,-36.29 -6.35,-10.07 -8.59,-26.19 -1.66,-36.73 2.74,-4.22 1.54,-7.89 1.54,-13.74 0,-57.91 101.52,-57.94 101.52,0 0,7.34 -1.66,9.06 2.3,14.85 6.63,9.6 3.23,26.71 -2.39,35.65 -3.61,10.51 -20.58,30.33 -19.33,36.29 1.08,29.72 -63.59,28.73 -63.41,0l-0.09 -0.03zm37.02 51.43l3.55 0c3.21,0 5.82,-2.61 5.82,-5.82l0 -9.49c0,-3.21 -2.61,-5.82 -5.82,-5.82l-21.13 0c-3.21,0 -5.82,2.61 -5.82,5.82l0 9.46c0,3.21 2.61,5.82 5.82,5.82l3.61 0 -6.93 35.27 27.56 0 -6.66 -35.24zm-121.94 35.24c2.73,-35.56 -4.22,-34.02 25.52,-45.17 14.57,-5.6 28.56,-12.71 41.69,-21.13l25.56 66.29 -92.77 0.01zm163.73 -69.32c11.96,8.02 24.94,14.53 38.54,19.27 27.79,9.25 27.64,10.53 27.64,50.05l-92.55 0 26.37 -69.32z"/>
 </g>
</svg>
