<svg xmlns="http://www.w3.org/2000/svg" viewBox="0 0 250 250">
 <g id="Layer_x0020_1">
  <path fill="currentColor" d="M10.84 13.06l0 10.88 217.32 0 0 152.15 -78.64 0 -73.52 36.76 0 -36.76 -54.32 0 0 -163.03 -10.84 0 0 10.88 0 -10.88 -10.89 0 0 184.71 54.33 0 0 50.18 100.36 -50.18 95.24 0 0 -195.55 -249.93 0 0 10.89 10.89 0 0 -0.05zm54.33 86.93l0 10.89 10.88 0 0 -10.89 -10.88 0 0 10.89 0 -10.89 -10.89 0 0 10.89 0 10.89 32.61 0 0 -32.61 -32.61 0 0 10.88 10.89 0 0 -0.05zm54.33 0l0 10.89 10.88 0 0 -10.89 -10.88 0 0 10.89 0 -10.89 -10.89 0 0 10.89 0 10.89 32.61 0 0 -32.61 -32.61 0 0 10.88 10.89 0 0 -0.05zm54.33 0l0 10.89 10.88 0 0 -10.89 -10.88 0 0 10.89 0 -10.89 -10.89 0 0 10.89 0 10.89 32.61 0 0 -32.61 -32.61 0 0 10.88 10.89 0 0 -0.05z"/>
 </g>
</svg>
