<?xml version="1.0" encoding="UTF-8"?>
<!DOCTYPE svg PUBLIC "-//W3C//DTD SVG 1.1//EN" "http://www.w3.org/Graphics/SVG/1.1/DTD/svg11.dtd">
<!-- Creator: CorelDRAW 2019 (64-Bit) -->
<svg xmlns="http://www.w3.org/2000/svg" xml:space="preserve" width="350px" height="300px" version="1.1" style="shape-rendering:geometricPrecision; text-rendering:geometricPrecision; image-rendering:optimizeQuality; fill-rule:evenodd; clip-rule:evenodd"
viewBox="0 0 350 300"
 xmlns:xlink="http://www.w3.org/1999/xlink">
 <defs>
  <style type="text/css">
   <![CDATA[
    .fil0 {fill:#CCCCCC}
    .fil1 {fill:#909090;fill-rule:nonzero}
   ]]>
  </style>
 </defs>
 <g id="Layer_x0020_1">
  <metadata id="CorelCorpID_0Corel-Layer"/>
  <rect class="fil0" width="350" height="300"/>
  <path class="fil1" d="M96.7 156.23l3.18 0 0 0.31c0,1.33 0.44,2.39 1.31,3.17 0.87,0.78 2.05,1.17 3.55,1.17 1.73,0 3.06,-0.44 4,-1.31 0.94,-0.88 1.41,-2.12 1.41,-3.73 0,-1.69 -0.48,-2.97 -1.43,-3.83 -0.96,-0.86 -2.38,-1.3 -4.26,-1.3 -0.24,0 -0.42,0 -0.54,0.01 -0.13,0.01 -0.25,0.02 -0.37,0.03l0 -2.56c0.09,0 0.23,0.01 0.41,0.02 0.19,0.01 0.33,0.02 0.43,0.02 1.79,0 3.15,-0.4 4.07,-1.18 0.91,-0.78 1.37,-1.95 1.37,-3.5 0,-1.36 -0.42,-2.45 -1.25,-3.25 -0.84,-0.81 -1.96,-1.21 -3.39,-1.21 -1.52,0 -2.71,0.37 -3.56,1.11 -0.85,0.75 -1.31,1.83 -1.38,3.24l-3.07 -0.02c0.12,-2.24 0.87,-3.96 2.26,-5.16 1.38,-1.2 3.32,-1.8 5.82,-1.8 2.4,0 4.31,0.62 5.71,1.87 1.41,1.25 2.11,2.94 2.11,5.07 0,1.54 -0.41,2.85 -1.23,3.92 -0.81,1.07 -1.95,1.8 -3.41,2.18 1.55,0.26 2.77,0.96 3.65,2.1 0.88,1.13 1.32,2.58 1.32,4.34 0,2.37 -0.78,4.23 -2.33,5.57 -1.55,1.36 -3.7,2.03 -6.45,2.03 -2.42,0 -4.34,-0.61 -5.78,-1.85 -1.43,-1.24 -2.15,-2.89 -2.15,-4.98l0 -0.48z"/>
  <path id="1" class="fil1" d="M122.57 149.81l-0.58 -0.11 3.1 -12.73 11.48 0 0 2.67 -9.35 0 -1.65 6.72c0.6,-0.31 1.24,-0.54 1.92,-0.7 0.67,-0.17 1.38,-0.25 2.14,-0.25 2.56,0 4.58,0.77 6.07,2.29 1.48,1.53 2.23,3.61 2.23,6.22 0,2.98 -0.86,5.33 -2.58,7.05 -1.72,1.71 -4.06,2.57 -7.03,2.57 -1.79,0 -3.33,-0.31 -4.61,-0.93 -1.28,-0.63 -2.36,-1.59 -3.25,-2.9l2.19 -2.54c0.58,1.18 1.36,2.09 2.34,2.72 0.98,0.63 2.12,0.95 3.4,0.95 1.88,0 3.39,-0.61 4.54,-1.81 1.13,-1.2 1.71,-2.8 1.71,-4.8 0,-1.9 -0.59,-3.42 -1.78,-4.57 -1.18,-1.15 -2.76,-1.72 -4.74,-1.72 -1.03,0 -2.01,0.15 -2.94,0.47 -0.94,0.31 -1.81,0.78 -2.61,1.4z"/>
  <path id="2" class="fil1" d="M153.67 163.54c-2.82,0 -5.04,-1.2 -6.66,-3.61 -1.63,-2.41 -2.44,-5.73 -2.44,-9.95 0,-4.19 0.81,-7.5 2.42,-9.91 1.61,-2.4 3.81,-3.61 6.61,-3.61 2.86,0 5.09,1.19 6.7,3.57 1.6,2.37 2.4,5.69 2.4,9.95 0,4.25 -0.8,7.57 -2.4,9.97 -1.6,2.39 -3.81,3.59 -6.63,3.59zm-0.03 -2.56c1.91,0 3.37,-0.93 4.36,-2.79 0.99,-1.86 1.48,-4.59 1.48,-8.18 0,-3.6 -0.49,-6.34 -1.48,-8.22 -0.99,-1.87 -2.45,-2.81 -4.36,-2.81 -1.84,0 -3.28,0.96 -4.31,2.88 -1.03,1.93 -1.54,4.61 -1.54,8.08 0,3.48 0.51,6.2 1.54,8.13 1.03,1.95 2.47,2.91 4.31,2.91z"/>
  <polygon id="3" class="fil1" points="166.93,162.85 173.22,154.41 167.11,146.51 170.59,146.51 174.82,152.35 179.11,146.51 182.58,146.51 176.43,154.41 182.76,162.85 179.28,162.85 174.82,156.53 170.41,162.85 "/>
  <path id="4" class="fil1" d="M187.3 156.23l3.18 0 0 0.31c0,1.33 0.43,2.39 1.3,3.17 0.87,0.78 2.05,1.17 3.56,1.17 1.72,0 3.06,-0.44 4,-1.31 0.94,-0.88 1.41,-2.12 1.41,-3.73 0,-1.69 -0.48,-2.97 -1.44,-3.83 -0.95,-0.86 -2.37,-1.3 -4.26,-1.3 -0.23,0 -0.42,0 -0.54,0.01 -0.13,0.01 -0.25,0.02 -0.37,0.03l0 -2.56c0.1,0 0.24,0.01 0.42,0.02 0.19,0.01 0.33,0.02 0.42,0.02 1.8,0 3.15,-0.4 4.07,-1.18 0.91,-0.78 1.37,-1.95 1.37,-3.5 0,-1.36 -0.41,-2.45 -1.25,-3.25 -0.83,-0.81 -1.96,-1.21 -3.39,-1.21 -1.52,0 -2.71,0.37 -3.55,1.11 -0.86,0.75 -1.31,1.83 -1.39,3.24l-3.07 -0.02c0.13,-2.24 0.87,-3.96 2.26,-5.16 1.39,-1.2 3.33,-1.8 5.83,-1.8 2.4,0 4.3,0.62 5.71,1.87 1.4,1.25 2.1,2.94 2.1,5.07 0,1.54 -0.4,2.85 -1.22,3.92 -0.82,1.07 -1.96,1.8 -3.42,2.18 1.55,0.26 2.77,0.96 3.65,2.1 0.88,1.13 1.32,2.58 1.32,4.34 0,2.37 -0.77,4.23 -2.32,5.57 -1.56,1.36 -3.71,2.03 -6.46,2.03 -2.41,0 -4.34,-0.61 -5.77,-1.85 -1.43,-1.24 -2.15,-2.89 -2.15,-4.98l0 -0.48z"/>
  <path id="5" class="fil1" d="M220.19 163.54c-2.82,0 -5.05,-1.2 -6.67,-3.61 -1.62,-2.41 -2.43,-5.73 -2.43,-9.95 0,-4.19 0.8,-7.5 2.41,-9.91 1.61,-2.4 3.82,-3.61 6.61,-3.61 2.86,0 5.09,1.19 6.7,3.57 1.6,2.37 2.41,5.69 2.41,9.95 0,4.25 -0.8,7.57 -2.4,9.97 -1.61,2.39 -3.81,3.59 -6.63,3.59zm-0.04 -2.56c1.91,0 3.37,-0.93 4.36,-2.79 1,-1.86 1.49,-4.59 1.49,-8.18 0,-3.6 -0.49,-6.34 -1.49,-8.22 -0.99,-1.87 -2.45,-2.81 -4.36,-2.81 -1.84,0 -3.28,0.96 -4.31,2.88 -1.03,1.93 -1.54,4.61 -1.54,8.08 0,3.48 0.51,6.2 1.54,8.13 1.03,1.95 2.47,2.91 4.31,2.91z"/>
  <path id="6" class="fil1" d="M244.27 163.54c-2.82,0 -5.05,-1.2 -6.67,-3.61 -1.62,-2.41 -2.43,-5.73 -2.43,-9.95 0,-4.19 0.8,-7.5 2.41,-9.91 1.61,-2.4 3.82,-3.61 6.61,-3.61 2.86,0 5.09,1.19 6.7,3.57 1.6,2.37 2.41,5.69 2.41,9.95 0,4.25 -0.8,7.57 -2.4,9.97 -1.61,2.39 -3.81,3.59 -6.63,3.59zm-0.04 -2.56c1.91,0 3.37,-0.93 4.36,-2.79 1,-1.86 1.49,-4.59 1.49,-8.18 0,-3.6 -0.49,-6.34 -1.49,-8.22 -0.99,-1.87 -2.45,-2.81 -4.36,-2.81 -1.84,0 -3.28,0.96 -4.31,2.88 -1.03,1.93 -1.54,4.61 -1.54,8.08 0,3.48 0.51,6.2 1.54,8.13 1.03,1.95 2.47,2.91 4.31,2.91z"/>
 </g>
</svg>
