<svg xmlns="http://www.w3.org/2000/svg" viewBox="0 0 250 250">
  <g id="Layer_x0020_1">
    <path fill="currentColor" d="M213.85 6.93c-7.55,0 -14.94,2.93 -20.64,8.63l-97.66 97.36 -2.16 2.15 -0.62 3.08 -6.77 34.51 -3.09 14.48 14.48 -3.08 34.51 -6.78 3.08 -0.62 2.16 -2.15 97.35 -97.67c11.36,-11.36 11.36,-29.92 0,-41.28 -5.7,-5.7 -13.09,-8.63 -20.64,-8.63zm0 19.11c2.31,0 4.58,1.19 6.78,3.38 4.39,4.4 4.39,9.17 0,13.56l-95.51 95.51 -16.94 3.39 3.39 -16.95 95.5 -95.51c2.2,-2.19 4.47,-3.38 6.78,-3.38zm-207.03 35.16l0 166.89c0,8.34 6.8,15.14 15.14,15.14l166.89 0c8.34,0 15.14,-6.8 15.14,-15.14l0 -114.87 -19.72 19.72 0 84.27c0,3.47 -2.83,6.31 -6.31,6.31l-145.11 0c-3.48,0 -6.31,-2.84 -6.31,-6.31l0 -145.12c0,-3.48 2.83,-6.31 6.31,-6.31l84.26 0 19.72 -19.72 -114.87 0c-8.34,0 -15.14,6.8 -15.14,15.14z"/>
 </g>
</svg>
