<svg xmlns="http://www.w3.org/2000/svg" viewBox="0 0 250 250">
  <g id="Layer_x0020_1">
  <path fill="currentColor" d="M42.27 248.1l59.38 0 0 -87.36 -33.97 0 0 -38.69 33.97 0 0 -29.48c0,-33.54 19.98,-52.06 50.55,-52.06 14.64,0 29.96,2.61 29.96,2.61l0 32.93 -16.88 0c-16.62,0 -21.81,10.32 -21.81,20.9l0 25.1 37.12 0 -5.94 38.69 -31.18 0 0 87.36 64.09 0c22.2,0 40.37,-18.17 40.37,-40.37l0 -165.29c0,-22.2 -18.17,-40.37 -40.37,-40.37l-165.29 0c-22.2,0 -40.37,18.17 -40.37,40.37l0 165.29c0,22.2 18.17,40.37 40.37,40.37z"/>
 </g>
</svg>
