<svg xmlns="http://www.w3.org/2000/svg" viewBox="0 0 250 250">
  <g id="Layer_x0020_1">
  <path fill="currentColor" d="M59.8 211.19l41.77 -50.64 19.1 24.37 -36.82 46.82c-14.1,17.92 -40.2,-0.96 -24.05,-20.55l0 0zm48.78 -115.33c3.98,-12.98 2.15,-24.07 -12.8,-40.54l-36.52 -43.94c-5.18,-6.08 -17.4,2.86 -12.3,10.23l29.21 35.98c5.53,6.71 -4.74,15.59 -10.44,8.68l-30.22 -37.21c-5.62,-6.45 -17.25,2.07 -11.37,9.44 8.52,10.25 21.7,26.98 30.22,37.23 5.9,6.01 -3.08,14.91 -8.9,7.41l-30 -36.96c-4.4,-4.78 -11.59,-1.81 -13.5,3.78 -2.05,5.96 3,10.32 6.43,14.74l33.47 43.23c10.39,12.04 22,19.17 35.5,15.13 2.07,-0.62 4.6,-1.89 7.31,-3.56l89.92 116.08c4.84,6.25 14.19,6.91 20.25,1.87l1.39 -1.15c6.83,-5.68 7.93,-16.07 2.09,-22.78l-95.23 -109.4c2.78,-3.1 4.81,-6.03 5.49,-8.26l0 0zm25.45 25.31l14.81 -17.96c-19.05,-47.21 51.53,-110.13 85.74,-81.2 41.56,35.18 -20.21,119.95 -63.62,99l-17.54 22.28 -19.39 -22.12 0 0z"/>
 </g>
</svg>
