<svg xmlns="http://www.w3.org/2000/svg" style="shape-rendering:geometricPrecision; text-rendering:geometricPrecision; image-rendering:optimizeQuality; fill-rule:evenodd; clip-rule:evenodd"
viewBox="0 0 250 250">
 <g id="Layer_x0020_1">
  <path fill="currentColor" d="M167.87 84.65l32.86 0 0 32.85 -32.86 0 0 -32.85zm-108.89 -26.1l0 -31.48 5.11 0 0 11.62 15.49 0 0 -11.62 5.11 0 0 31.48 -5.11 0 0 -15.28 -15.49 0 0 15.28 -5.11 0zm59.87 -15.67c0,-1.6 -0.29,-3.11 -0.87,-4.54 -0.58,-1.43 -1.42,-2.71 -2.51,-3.82 -1.06,-1.11 -2.28,-1.95 -3.68,-2.55 -1.4,-0.59 -2.88,-0.89 -4.42,-0.89 -1.54,0 -3.02,0.29 -4.42,0.88 -1.4,0.59 -2.64,1.44 -3.73,2.56 -1.08,1.1 -1.92,2.37 -2.49,3.8 -0.57,1.43 -0.86,2.95 -0.86,4.56 0,1.59 0.29,3.09 0.86,4.51 0.57,1.41 1.41,2.68 2.49,3.8 1.09,1.12 2.33,1.97 3.72,2.56 1.39,0.59 2.87,0.88 4.43,0.88 1.54,0 2.99,-0.29 4.38,-0.88 1.38,-0.59 2.62,-1.44 3.72,-2.56 1.09,-1.12 1.93,-2.39 2.51,-3.81 0.58,-1.43 0.87,-2.93 0.87,-4.5zm5.33 0c0,2.23 -0.42,4.35 -1.26,6.33 -0.84,2 -2.06,3.78 -3.67,5.34 -1.61,1.56 -3.44,2.76 -5.48,3.59 -2.03,0.83 -4.17,1.24 -6.4,1.24 -2.26,0 -4.42,-0.41 -6.48,-1.25 -2.06,-0.84 -3.87,-2.03 -5.45,-3.58 -1.6,-1.56 -2.82,-3.33 -3.65,-5.31 -0.83,-1.98 -1.25,-4.1 -1.25,-6.36 0,-2.26 0.42,-4.38 1.25,-6.36 0.83,-2 2.05,-3.78 3.65,-5.36 1.61,-1.57 3.43,-2.75 5.46,-3.57 2.03,-0.81 4.19,-1.22 6.47,-1.22 2.26,0 4.41,0.41 6.44,1.22 2.02,0.82 3.84,2 5.44,3.57 1.61,1.59 2.83,3.39 3.67,5.38 0.84,2.01 1.26,4.11 1.26,6.34zm14.46 -11.45l0 27.12 -5.11 0 0 -27.12 -8.36 0 0 -4.36 21.79 0 0 4.36 -8.32 0zm12.23 27.12l0 -31.48 17.56 0 0 4.36 -12.45 0 0 7.88 12.45 0 0 4.49 -12.45 0 0 10.17 12.45 0 0 4.58 -17.56 0zm23.43 0l0 -31.48 5.1 0 0 26.9 11.45 0 0 4.58 -16.55 0zm-122.67 -57.29l146.57 0 0 12.64 21.48 0 0 235.01 -78.34 0 0 -55.6 -32.85 0 0 55.6 -78.34 0 0 -235.01 21.48 0 0 -12.64zm-2.52 192.05l32.85 0 0 32.86 -32.85 0 0 -32.86zm118.76 0l32.86 0 0 32.86 -32.86 0 0 -32.86zm0 -55.59l32.86 0 0 32.85 -32.86 0 0 -32.85zm-59.38 0l32.85 0 0 32.85 -32.85 0 0 -32.85zm-59.38 0l32.85 0 0 32.85 -32.85 0 0 -32.85zm0 -53.07l32.85 0 0 32.85 -32.85 0 0 -32.85zm59.38 0l32.85 0 0 32.85 -32.85 0 0 -32.85z"/>
 </g>
</svg>
