<svg xmlns="http://www.w3.org/2000/svg" viewBox="0 0 250 250">
  <g id="Layer_x0020_1">
    <path fill="currentColor" d="M202.79 61.53c0,-7.93 -6.42,-14.32 -14.32,-14.32 -7.89,0 -14.31,6.39 -14.31,14.32 0,7.89 6.42,14.29 14.31,14.29 7.9,0 14.32,-6.4 14.32,-14.29l0 0zm0 0l0 0 0 0z"/>
    <path fill="currentColor" d="M221.86 173.29c-0.53,11.63 -2.47,17.94 -4.09,22.13 -2.17,5.56 -4.75,9.54 -8.95,13.71 -4.14,4.17 -8.12,6.75 -13.68,8.89 -4.19,1.64 -10.53,3.59 -22.15,4.14 -12.56,0.56 -16.29,0.68 -48.15,0.68 -31.82,0 -35.58,-0.12 -48.14,-0.68 -11.62,-0.55 -17.93,-2.5 -22.12,-4.14 -5.59,-2.14 -9.54,-4.72 -13.71,-8.89 -4.2,-4.17 -6.78,-8.15 -8.92,-13.71 -1.62,-4.19 -3.59,-10.5 -4.09,-22.13 -0.61,-12.56 -0.73,-16.34 -0.73,-48.13 0,-31.86 0.12,-35.62 0.73,-48.18 0.5,-11.62 2.47,-17.93 4.09,-22.16 2.14,-5.55 4.72,-9.5 8.92,-13.67 4.17,-4.17 8.12,-6.75 13.71,-8.92 4.19,-1.64 10.5,-3.57 22.12,-4.12 12.56,-0.55 16.32,-0.69 48.14,-0.69 31.86,0 35.59,0.14 48.15,0.69 11.62,0.55 17.96,2.48 22.15,4.12 5.56,2.17 9.54,4.75 13.68,8.92 4.2,4.17 6.78,8.12 8.95,13.67 1.61,4.23 3.56,10.54 4.09,22.16 0.58,12.56 0.72,16.32 0.72,48.18 0,31.79 -0.14,35.57 -0.72,48.13l0 0zm21.46 -97.29c-0.59,-12.7 -2.59,-21.37 -5.56,-28.93 -3.03,-7.84 -7.09,-14.48 -13.73,-21.13 -6.62,-6.61 -13.26,-10.67 -21.1,-13.73 -7.59,-2.95 -16.23,-4.97 -28.94,-5.53 -12.7,-0.61 -16.76,-0.72 -49.15,-0.72 -32.35,0 -36.44,0.11 -49.14,0.72 -12.68,0.56 -21.32,2.58 -28.94,5.53 -7.81,3.06 -14.45,7.12 -21.07,13.73 -6.64,6.65 -10.7,13.29 -13.76,21.13 -2.94,7.56 -4.94,16.23 -5.56,28.93 -0.55,12.71 -0.69,16.77 -0.69,49.16 0,32.35 0.14,36.41 0.69,49.11 0.62,12.68 2.62,21.35 5.56,28.94 3.06,7.81 7.12,14.48 13.76,21.1 6.62,6.61 13.26,10.7 21.07,13.76 7.62,2.94 16.26,4.95 28.94,5.53 12.7,0.58 16.79,0.72 49.14,0.72 32.39,0 36.45,-0.14 49.15,-0.72 12.71,-0.58 21.35,-2.59 28.94,-5.53 7.84,-3.06 14.48,-7.15 21.1,-13.76 6.64,-6.62 10.7,-13.29 13.73,-21.1 2.97,-7.59 4.97,-16.26 5.56,-28.94 0.58,-12.7 0.72,-16.76 0.72,-49.11 0,-32.39 -0.14,-36.45 -0.72,-49.16l0 0z"/>
    <path fill="currentColor" d="M124.84 164.85c-21.92,0 -39.72,-17.77 -39.72,-39.69 0,-21.97 17.8,-39.76 39.72,-39.76 21.94,0 39.76,17.79 39.76,39.76 0,21.92 -17.82,39.69 -39.76,39.69zm0 -100.93c-33.8,0 -61.17,27.43 -61.17,61.24 0,33.77 27.37,61.18 61.17,61.18 33.81,0 61.21,-27.41 61.21,-61.18 0,-33.81 -27.4,-61.24 -61.21,-61.24z"/>
 </g>
</svg>
