<svg xmlns="http://www.w3.org/2000/svg" viewBox="0 0 250 250">
    <g id="Layer_x0020_1">
        <path fill="currentColor" d="M83.39 197.79l0 -98.11 -32.61 0 0 98.11 32.61 0zm-30.66 -195.56l144.37 0c13.95,0 26.61,5.7 35.79,14.88 9.18,9.18 14.88,21.84 14.88,35.79l0 144.37c0,13.94 -5.7,26.61 -14.88,35.79 -9.18,9.18 -21.84,14.88 -35.79,14.88l-144.37 0c-13.94,0 -26.61,-5.7 -35.79,-14.88 -9.18,-9.18 -14.88,-21.85 -14.88,-35.79l0 -144.37c0,-13.95 5.7,-26.61 14.88,-35.79 9.18,-9.18 21.85,-14.88 35.79,-14.88zm144.37 17.07l-144.37 0c-9.23,0 -17.63,3.78 -23.73,9.87 -6.09,6.1 -9.87,14.49 -9.87,23.73l0 144.37c0,9.23 3.78,17.63 9.87,23.73 6.1,6.09 14.5,9.87 23.73,9.87l144.37 0c9.24,0 17.63,-3.78 23.73,-9.87 6.09,-6.1 9.87,-14.5 9.87,-23.73l0 -144.37c0,-9.24 -3.78,-17.63 -9.87,-23.73 -6.1,-6.09 -14.49,-9.87 -23.73,-9.87zm-130.02 66.98c11.38,0 18.45,-7.53 18.45,-16.95 -0.21,-9.63 -7.07,-16.95 -18.23,-16.95 -11.16,0 -18.45,7.32 -18.45,16.95 0,9.42 7.08,16.95 18.02,16.95l0.21 0 0 0zm34.35 111.51l32.62 0 0 -54.79c0,-2.93 0.21,-5.86 1.07,-7.96 2.36,-5.86 7.72,-11.93 16.73,-11.93 11.8,0 16.52,9 16.52,22.19l0 52.49 32.61 0 0 -56.26c0,-30.13 -16.09,-44.16 -37.54,-44.16 -17.6,0 -25.32,9.84 -29.61,16.54l0.22 0 0 -14.23 -32.62 0c0.43,9.2 0,98.11 0,98.11l0 0z"/>
    </g>
</svg>
