<?xml version="1.0" encoding="UTF-8"?>
<!DOCTYPE svg PUBLIC "-//W3C//DTD SVG 1.1//EN" "http://www.w3.org/Graphics/SVG/1.1/DTD/svg11.dtd">
<!-- Creator: CorelDRAW 2019 (64-Bit) -->
<svg xmlns="http://www.w3.org/2000/svg" xml:space="preserve" width="250px" height="250px" version="1.1" style="shape-rendering:geometricPrecision; text-rendering:geometricPrecision; image-rendering:optimizeQuality; fill-rule:evenodd; clip-rule:evenodd"
viewBox="0 0 250 250"
 xmlns:xlink="http://www.w3.org/1999/xlink">
 <defs>
  <style type="text/css">
   <![CDATA[
    .fil0 {fill:#D3B037}
   ]]>
  </style>
 </defs>
 <g id="Layer_x0020_1">
  <metadata id="CorelCorpID_0Corel-Layer"/>
  <path class="fil0" d="M79.06 169.31l91.92 0.33 0.72 37.09 18.59 -0.28 -0.24 -137.31 -18.92 -17.95 -0.42 98.69 -91.64 -0.1 -0.1 -43.81 -19.24 18.06 0 121.14 19.29 0.09 0.04 -75.95zm-58.18 -61.14l-0.11 137.43 19.55 -0.69 -0.08 -127.59 84.79 -84.73 28.14 26.06 0 -24.19 -27.61 -30.06 -104.68 103.77zm77.3 137.31l131.05 0.11 -0.48 -137.07 -19.26 -17.99 -0.87 135.25 -110 0.31 -0.44 19.39z"/>
 </g>
</svg>
