<?xml version="1.0" encoding="UTF-8"?>
<!DOCTYPE svg PUBLIC "-//W3C//DTD SVG 1.1//EN" "http://www.w3.org/Graphics/SVG/1.1/DTD/svg11.dtd">
<!-- Creator: CorelDRAW 2019 (64-Bit) -->
<svg xmlns="http://www.w3.org/2000/svg" xml:space="preserve" width="250px" height="250px" version="1.1" style="shape-rendering:geometricPrecision; text-rendering:geometricPrecision; image-rendering:optimizeQuality; fill-rule:evenodd; clip-rule:evenodd"
viewBox="0 0 250 250"
 xmlns:xlink="http://www.w3.org/1999/xlink">
 <defs>
  <style type="text/css">
   <![CDATA[
    .fil0 {fill:url(#id0)}
   ]]>
  </style>
  <linearGradient id="id0" gradientUnits="userSpaceOnUse" x1="31.03" y1="125" x2="213.46" y2="124.98">
   <stop offset="0" style="stop-opacity:1; stop-color:#D3B037"/>
   <stop offset="1" style="stop-opacity:1; stop-color:#917107"/>
  </linearGradient>
 </defs>
 <g id="Layer_x0020_1">
  <metadata id="CorelCorpID_0Corel-Layer"/>
  <path class="fil0" d="M79.2 169.18l91.64 0.33 0.72 36.98 18.54 -0.28 -0.24 -136.91 -18.87 -17.9 -0.42 98.41 -91.36 -0.1 -0.11 -43.68 -19.17 18.01 -0.01 120.78 19.24 0.09 0.04 -75.73zm-58.01 -60.96l-0.11 137.03 19.49 -0.7 -0.08 -127.21 84.54 -84.47 28.06 25.98 0 -24.12 -27.53 -29.98 -104.37 103.47zm77.07 136.9l130.66 0.12 -0.47 -136.67 -19.21 -17.94 -0.87 134.85 -109.67 0.31 -0.44 19.33z"/>
 </g>
</svg>
