<svg xmlns="http://www.w3.org/2000/svg" viewBox="0 0 250 250">
  <g id="Layer_x0020_1">
    <path fill="currentColor" d="M35.83 58.37c-4.08,0 -7.42,3.34 -7.42,7.42l0 10.25 79.99 65.65c9.6,7.89 23.37,7.89 32.97,0l79.94 -65.65 0 -10.25c0,-4.08 -3.34,-7.42 -7.42,-7.42l-178.06 0zm-7.42 46.46l0 79.66c0,4.08 3.34,7.42 7.42,7.42l178.06 0c4.08,0 7.42,-3.34 7.42,-7.42l0 -79.66 -65.85 54.07c-17.8,14.6 -43.44,14.6 -61.2,0l-65.85 -54.07zm-22.25 -39.04c0,-16.37 13.3,-29.68 29.67,-29.68l178.06 0c16.36,0 29.67,13.31 29.67,29.68l0 118.7c0,16.37 -13.31,29.68 -29.67,29.68l-178.06 0c-16.37,0 -29.67,-13.31 -29.67,-29.68l0 -118.7z"/>
  </g>
</svg>
