<svg xmlns="http://www.w3.org/2000/svg" viewBox="0 0 250 250">
  <g id="Layer_x0020_1">
  <path fill="currentColor" d="M78.86 188c3.51,5.27 7.75,10.11 12.61,14.41 14.9,13.2 35.54,21.37 58.41,21.37 9.29,0 18.2,-1.35 26.5,-3.83 8.58,-2.57 16.54,-6.35 23.6,-11.13l2.97 -2.01 20.86 11.25 -4.11 -28.28 1.25 -1.89c3.61,-5.44 6.44,-11.31 8.33,-17.5 1.82,-5.95 2.8,-12.24 2.8,-18.77 0,-19.81 -9.1,-37.77 -23.8,-50.8 -0.37,-0.33 -0.75,-0.65 -1.13,-0.98 0.1,-1.73 0.16,-3.47 0.16,-5.23 0,-3.37 -0.2,-6.7 -0.59,-9.99 3.32,2.25 6.47,4.7 9.43,7.32 17.2,15.24 27.84,36.34 27.84,59.68 0,7.66 -1.17,15.13 -3.35,22.26 -2.02,6.57 -4.9,12.82 -8.53,18.63l6.87 47.24 -35.39 -19.09c-7.25,4.51 -15.26,8.13 -23.82,10.69 -9.4,2.82 -19.46,4.34 -29.89,4.34 -25.83,0 -49.27,-9.32 -66.27,-24.39 -8.73,-7.73 -15.76,-16.96 -20.58,-27.22 5.11,1.65 10.4,2.97 15.83,3.92zm69.49 -103.22c6.55,0 11.86,5.31 11.86,11.86 0,6.54 -5.31,11.85 -11.86,11.85 -6.54,0 -11.85,-5.31 -11.85,-11.85 0,-6.55 5.31,-11.86 11.85,-11.86zm-47.65 0c6.54,0 11.85,5.31 11.85,11.86 0,6.54 -5.31,11.85 -11.85,11.85 -6.55,0 -11.86,-5.31 -11.86,-11.85 0,-6.55 5.31,-11.86 11.86,-11.86zm-47.66 0c6.55,0 11.85,5.31 11.85,11.86 0,6.54 -5.3,11.85 -11.85,11.85 -6.55,0 -11.85,-5.31 -11.85,-11.85 0,-6.55 5.3,-11.86 11.85,-11.86zm46.8 -74.25c25.83,0 49.27,9.33 66.27,24.4 17.21,15.24 27.85,36.34 27.85,59.68 0,23.34 -10.64,44.44 -27.85,59.68 -17.01,15.07 -40.44,24.4 -66.27,24.4 -10.43,0 -20.49,-1.53 -29.9,-4.34 -8.55,-2.56 -16.56,-6.19 -23.81,-10.7l-35.39 19.09 6.86 -47.24c-3.62,-5.81 -6.5,-12.05 -8.52,-18.63 -2.19,-7.13 -3.35,-14.59 -3.35,-22.26 0,-23.34 10.64,-44.44 27.84,-59.68 17.01,-15.07 40.44,-24.4 66.27,-24.4zm58.41 33.29c-14.9,-13.21 -35.55,-21.37 -58.41,-21.37 -22.86,0 -43.5,8.16 -58.4,21.37 -14.7,13.02 -23.8,30.99 -23.8,50.79 0,6.53 0.97,12.83 2.8,18.77 1.89,6.19 4.72,12.06 8.32,17.5l1.26 1.89 -4.11 28.28 20.86 -11.25 2.97 2.01c7.06,4.78 15.02,8.57 23.6,11.13 8.3,2.49 17.21,3.83 26.5,3.83 22.86,0 43.51,-8.16 58.41,-21.37 14.7,-13.02 23.79,-30.98 23.79,-50.79 0,-19.8 -9.09,-37.77 -23.79,-50.79z"/>
 </g>
</svg>
