<?xml version="1.0" encoding="UTF-8"?>
<!DOCTYPE svg PUBLIC "-//W3C//DTD SVG 1.1//EN" "http://www.w3.org/Graphics/SVG/1.1/DTD/svg11.dtd">
<!-- Creator: CorelDRAW 2019 (64-Bit) -->
<svg xmlns="http://www.w3.org/2000/svg" xml:space="preserve" width="439px" height="310px" version="1.1" style="shape-rendering:geometricPrecision; text-rendering:geometricPrecision; image-rendering:optimizeQuality; fill-rule:evenodd; clip-rule:evenodd"
viewBox="0 0 439 310.4"
 xmlns:xlink="http://www.w3.org/1999/xlink">
 <defs>
  <style type="text/css">
   <![CDATA[
    .fil0 {fill:#025F8C}
    .fil1 {fill:#E68F00}
   ]]>
  </style>
 </defs>
 <g id="Layer_x0020_1">
  <metadata id="CorelCorpID_0Corel-Layer"/>
  <g id="_2377782288896">
   <path class="fil0" d="M147.95 63.87c0,2.65 0.02,4.24 1.09,6.63 0.53,1.21 1.13,2.31 1.87,3.42 2.16,3.22 4.65,5.87 6.83,9.05 0.46,0.68 0.67,0.88 1.14,1.5 0.42,0.55 0.67,0.99 1.06,1.58 1.76,2.68 2.25,4.36 3.14,7.45 1.15,3.96 2.55,7.84 4.05,11.61 1.54,3.87 4.82,11.16 7.33,13.83 4.2,4.49 1.8,2.25 0.73,8.56 -1.36,8.01 -3.21,7.82 -3.21,20.6 0,3.44 0.56,7.12 1.13,10.11l1.21 4.52c1.34,4.06 3.12,7.83 5.88,11.1 2.64,3.12 5.55,5.17 9.89,3.62 2.51,-0.89 3.63,-2.99 4.29,-5.63 0.64,-2.52 0.8,-6.01 1.36,-8.56 0.21,-0.98 0.49,-2.01 0.49,-3.04l0.44 0c0.31,1.31 1.23,2.5 1.79,3.72 0.97,2.11 1.95,4.33 3.24,6.25 0.54,0.8 0.97,1.46 1.56,2.19 5.93,7.41 8.39,8.63 14.72,14.16l2.35 2.5c1.36,1.3 2.91,2.28 4.56,3.15 -0.11,-1.38 -3.38,-3.21 -4.63,-4.85l-2.15 -2.47c-4.51,-5.06 -8.97,-12.58 -12.27,-18.6 -0.35,-0.63 -0.48,-1.01 -0.83,-1.6 -2.42,-4.08 -4.23,-8.46 -6.14,-12.82 -0.43,-0.98 -1.03,-2.24 -1.3,-3.33 -0.33,-1.38 -0.38,-2.81 -2,-2.85 -0.22,0.81 -1.15,1.87 -1.71,2.48 -0.63,0.71 -1.29,1.63 -1.82,2.37 -1.46,2.06 -2.5,4.49 -3.14,7.23 -0.68,2.92 -1.71,10.2 -1.71,13.28 -1.16,0.27 -1.98,-0.18 -2.84,-0.91l-0.34 -0.32c-0.03,-0.04 -0.07,-0.08 -0.11,-0.12l-0.63 -0.69c-1.66,-1.86 -2.7,-5.06 -3.52,-7.5 -2.32,-6.92 -3.2,-17.92 -1.31,-25.67l0.78 -2.97c0.79,-2.33 3.56,-9.03 3.56,-11.43 0,-1.16 -0.98,-3.02 -1.59,-3.7 -2.09,-2.31 -2.94,-3.02 -4.76,-5.82l-1.95 -3.56c-3.11,-6.2 -4.44,-13.27 -7.01,-19.68 -0.28,-0.71 -0.51,-1.26 -0.77,-1.87 -2.34,-5.25 -6.37,-9.69 -9.81,-14.22 -0.79,-1.04 -1.44,-2.08 -2.07,-3.23 -0.94,-1.71 -2.14,-4.76 -0.42,-6.51 3.11,-3.18 13.94,2.94 17.57,5.02 1.7,0.98 3.35,2.26 4.81,3.57 0.62,0.57 1.92,1.5 2.74,1.66 0.7,0.14 1.78,0.03 3.79,0.41 3.99,0.75 6.94,0.04 11.35,1.43 11.22,3.55 20.81,10.7 29.53,18.32l0.6 0.5c3.59,3 8.29,8.35 11.16,12.21 0.42,0.58 0.56,0.68 1.01,1.2 2.8,3.31 5.34,7.83 7.6,11.58 3.05,5.05 3,6.78 5.22,11.76 0.25,0.55 0.36,0.75 0.63,1.35l10.18 22.01c1.3,2.9 4.11,8.81 6.51,10.47 2.08,1.45 12.17,4.41 15.59,5.79 2.52,1.02 4.58,2.31 6.85,3.74l7.5 5.29c1.88,1.56 8.1,4.14 8.33,6.88l-3.58 -0.09c-5.92,-0.23 -12.58,1 -18,2.98 -1.59,0.58 -5.54,1.15 -5.54,3.28 0,0.58 2.57,4.98 2.91,5.47 0.52,0.78 1.18,1.69 1.78,2.41l1.29 1.36c0.03,0.03 0.07,0.08 0.1,0.11 3.24,3.23 8.96,7.13 13.14,9.13 7.61,3.63 11.79,5.55 18.42,11.13 0.43,0.37 2.7,3.08 3.37,2.41 0.37,-0.37 0.25,0.08 -0.06,-0.59l-1.83 -3.52c-1.12,-1.65 -2.87,-2.76 -4.07,-4.31 -1.41,-1.84 -3.11,-3.95 -4.91,-5.45 -4.15,-3.47 -5.92,-5.1 -10.89,-8.07 -2.6,-1.56 -6.64,-3.8 -8.32,-6.45 -0.38,-0.6 -0.42,-0.87 -0.79,-1.42 1.75,0 3.26,-0.47 4.8,-0.94l8.03 -1.67c1.14,-0.12 2.32,-0.13 3.43,-0.31 0.57,-0.1 0.81,-0.27 1.61,-0.38 1.57,-0.22 3.03,-0.77 4.58,-1.16 0.48,-0.12 0.99,-0.26 1.54,-0.44 0.98,-0.31 1.15,-0.28 1.15,-1.28 0,-0.52 -1.45,-2.03 -1.86,-2.55 -3.96,-5.07 -5.37,-6.04 -10.27,-9.79 -11.12,-8.48 -10.42,-8.44 -23.77,-14.6 -1.86,-0.86 -4.73,-1.34 -6.03,-3 -1.89,-2.39 -3.21,-5.85 -4.55,-8.68 -2.44,-5.12 -5.21,-10.11 -7.35,-15.36l-2.74 -6.3c-1.15,-2.89 -2.48,-6.8 -3.97,-9.48l-5.16 -8.51c-0.58,-0.87 -1.18,-1.68 -1.83,-2.58l-5.82 -7.63c-2.08,-2.58 -6.41,-7.4 -8.74,-9.34 -0.53,-0.45 -0.69,-0.49 -1.2,-1l-17.91 -13.62c-0.71,-0.38 -0.79,-0.53 -1.47,-0.96 -1,-0.62 -1.8,-1.02 -2.77,-1.64 -3.46,-2.25 -7.13,-3.44 -11.13,-4.52l-5.5 -1.34c-2.02,-0.51 -6.77,0.04 -8.59,-0.45 -1.83,-0.49 -3.64,-2.82 -5.16,-3.88 -0.8,-0.57 -1.8,-1.12 -2.74,-1.67 -1.02,-0.6 -2.04,-1.14 -3.02,-1.61 -2.03,-0.97 -3.94,-2.01 -6.29,-2.75 -4.48,-1.41 -10.8,-2.55 -14.69,0.9 -1.03,0.92 -3.02,4.21 -3.02,6.01z"/>
   <path class="fil0" d="M118.4 219.97l0 25.36c0,0.51 0.16,0.66 0.66,0.66 7.64,0 6.18,1.27 6.18,-5.95l0.19 -19.82 4.73 10.48c0.6,1.29 1.06,2.34 1.63,3.67 0.8,1.87 3.97,9.45 5.31,10.56 2.05,1.69 7.08,1.87 9.03,-0.09 1.98,-1.98 3.95,-7.57 5.27,-10.39 0.58,-1.24 0.95,-2.3 1.54,-3.53 0.59,-1.22 1.16,-2.42 1.65,-3.64 0.48,-1.16 1.05,-2.26 1.58,-3.5 0.32,-0.76 0.5,-1.17 0.82,-1.82l0.88 -1.77 0 23.16c-0.02,3.24 -1.04,2.64 6.17,2.64 0.51,0 0.66,-0.15 0.66,-0.66l0 -26.9c0,-4.19 -10.5,-6.91 -13.35,0.09l-4.97 11.13c-0.75,1.64 -4.47,10.38 -5.05,11.05l-9.4 -22.13c-1.24,-2.58 -3.03,-4.33 -6.25,-4.33 -1.51,0 -4.2,0.63 -5.21,1.19 -1.53,0.84 -2.07,2.29 -2.07,4.54z"/>
   <path class="fil1" d="M258.63 241.36c-12.39,0 -10.59,1.36 -10.59,-18.3 0,-2.65 2.43,-3.53 5.08,-3.53l9.92 0c2.81,0 4.63,1.33 4.63,4.19l0 13.45c0,1.91 -0.62,2.76 -1.77,3.53 -6.32,-5.49 -2.82,-4.41 -12.56,-4.41 1.1,1.65 4.45,3.92 5.29,5.07zm-17.86 -19.62l0 17.42c0,4.5 5.94,6.83 9.7,6.83l5.95 0c2.29,0 3.91,-0.25 5.97,-0.24 1.69,0.01 1.21,0.1 2.14,0.95 0.62,0.57 1,0.78 1.65,1.44 0.63,0.63 0.89,0.9 1.61,1.48 1.01,0.82 0.54,0.81 2.29,0.79 2.14,-0.02 4.27,-0.01 6.41,-0.01 -0.55,-0.82 -5.97,-5.37 -6.4,-5.95 2.85,-1.51 3.97,-2.87 3.97,-7.06l0 -13.89c0,-6.55 -5.01,-8.6 -11.02,-8.6l-11.47 0c-4.39,0 -10.8,1.86 -10.8,6.84z"/>
   <path class="fil0" d="M170.21 239.6c0,3.8 5.86,5.95 9.71,5.95l15.21 0c0,2.2 0.61,5.07 -4.41,5.07l-20.51 0 0 4.41 22.49 0c1.99,0 5.06,-1.04 6.3,-1.86 1.6,-1.05 2.96,-2.67 2.96,-5.2l0 -23.81 -6.83 0 0 17.42 -13.23 0c-6.21,0 -4.85,-2.62 -4.85,-6.61l0 -8.61c0.04,-2.77 0.97,-2.2 -6.84,-2.2l0 15.44z"/>
   <path class="fil1" d="M207.04 221.3c0,4.69 -0.85,7.25 3.52,9.48 6.87,3.52 19.18,-0.74 19.18,4.19 0,2.43 0.85,6.17 -3.3,6.17l-19.4 0 0 4.85 17.41 0c2.83,0 5.78,-0.46 7.72,-1.32 5.47,-2.43 4.41,-5.52 4.41,-11.03 0,-3.35 -6.47,-5.51 -10.14,-5.52 -2.57,0 -5.15,0 -7.72,0.01 -5.48,0.02 -4.85,-1.62 -4.85,-6.39 0,-1.93 2.19,-2.22 4.18,-2.21l16.33 0c3.09,0.02 2.64,0.7 2.64,-3.97 0,-0.5 -0.15,-0.66 -0.66,-0.66l-19.4 0c-4.2,0 -9.92,1.9 -9.92,6.4z"/>
   <path class="fil1" d="M278.03 238.49c0,6.75 8.88,7.5 14.11,7.5l14.77 0c1.06,0 0.66,-1.48 0.66,-4.19 0,-0.98 -1.37,-0.67 -2.42,-0.66 -2.96,0.03 -16.88,0.32 -18.44,-0.3 -0.74,-0.29 -1.48,-0.79 -1.74,-1.57 -0.25,-0.77 -0.13,-18.1 -0.1,-21.72 0.01,-3.29 1.13,-2.65 -6.84,-2.65l0 23.59z"/>
   <path class="fil1" d="M317.94 244.01l0 0zm-7.28 -3.31l0 1.1c0,5.68 9.92,6.14 9.92,-0.66 0,-6.5 -9.92,-6.28 -9.92,-0.44z"/>
   <path class="fil0" d="M182.12 85.04c0.56,2.1 3.1,2.97 5.04,7.53l1.35 3.05c2.21,-0.18 3.93,-4.59 2.56,-6.97 -0.23,-0.41 -0.32,-0.62 -0.53,-1 -0.61,-1.09 -2.22,-2.37 -3.21,-2.97 -1.02,-0.62 -4.35,-0.05 -5.21,0.36z"/>
   <path class="fil1" d="M315.95 240.7l-1.32 0 0 -1.54c0.65,0.01 1.77,0.23 2.2,0.44 -0.05,0.65 -0.15,1.1 -0.88,1.1zm1.99 3.31c-0.28,-1.02 -1.05,-1.41 -1.33,-2.43 1.33,-0.31 1.33,-0.83 1.33,-2.42 -0.7,-0.47 -0.68,-0.74 -1.78,-0.87 -0.73,-0.08 -1.86,-0.02 -2.63,-0.02l0 5.74 1.1 0 0 -2.43c0.97,0.08 0.84,0.2 1.26,0.94 0.35,0.62 0.59,0.96 0.94,1.49l1.11 0z"/>
  </g>
 </g>
</svg>
