<?xml version="1.0" encoding="UTF-8"?>
<!DOCTYPE svg PUBLIC "-//W3C//DTD SVG 1.1//EN" "http://www.w3.org/Graphics/SVG/1.1/DTD/svg11.dtd">
<!-- Creator: CorelDRAW 2019 (64-Bit) -->
<svg xmlns="http://www.w3.org/2000/svg" xml:space="preserve" width="350px" height="350px" version="1.1" style="shape-rendering:geometricPrecision; text-rendering:geometricPrecision; image-rendering:optimizeQuality; fill-rule:evenodd; clip-rule:evenodd"
viewBox="0 0 350 350"
 xmlns:xlink="http://www.w3.org/1999/xlink">
 <defs>
  <style type="text/css">
   <![CDATA[
    .fil2 {fill:#909090}
    .fil0 {fill:#CCCCCC}
    .fil1 {fill:#909090;fill-rule:nonzero}
   ]]>
  </style>
 </defs>
 <g id="Layer_x0020_1">
  <metadata id="CorelCorpID_0Corel-Layer"/>
  <rect class="fil0" x="-0.12" y="0.12" width="350" height="350"/>
  <polygon class="fil1" points="136.51,222.08 135.55,222.08 131.68,216.21 131.68,222.08 130.71,222.08 130.71,214.69 131.68,214.69 135.55,220.55 135.55,214.69 136.51,214.69 "/>
  <path id="1" class="fil1" d="M141.49 222.15c-0.68,0 -1.3,-0.16 -1.87,-0.48 -0.56,-0.32 -1.01,-0.77 -1.34,-1.34 -0.33,-0.58 -0.49,-1.23 -0.49,-1.95 0,-0.71 0.16,-1.36 0.49,-1.94 0.33,-0.57 0.78,-1.02 1.34,-1.34 0.57,-0.32 1.19,-0.48 1.87,-0.48 0.69,0 1.32,0.16 1.89,0.48 0.56,0.32 1.01,0.77 1.33,1.34 0.32,0.57 0.49,1.22 0.49,1.94 0,0.73 -0.17,1.38 -0.49,1.95 -0.32,0.57 -0.77,1.02 -1.33,1.34 -0.57,0.32 -1.2,0.48 -1.89,0.48zm0 -0.83c0.52,0 0.98,-0.12 1.39,-0.36 0.42,-0.24 0.74,-0.59 0.98,-1.03 0.23,-0.45 0.35,-0.96 0.35,-1.55 0,-0.59 -0.12,-1.1 -0.35,-1.55 -0.24,-0.44 -0.56,-0.78 -0.97,-1.02 -0.41,-0.24 -0.87,-0.36 -1.4,-0.36 -0.52,0 -0.98,0.12 -1.39,0.36 -0.41,0.24 -0.73,0.58 -0.97,1.02 -0.24,0.45 -0.36,0.96 -0.36,1.55 0,0.59 0.12,1.1 0.36,1.55 0.24,0.44 0.56,0.79 0.97,1.03 0.41,0.24 0.88,0.36 1.39,0.36z"/>
  <polygon id="2" class="fil1" points="150.25,214.7 150.25,222.08 149.29,222.08 149.29,214.7 "/>
  <polygon id="3" class="fil1" points="159.37,214.76 159.37,222.08 158.41,222.08 158.41,216.62 155.98,222.08 155.3,222.08 152.86,216.61 152.86,222.08 151.89,222.08 151.89,214.76 152.93,214.76 155.64,220.81 158.35,214.76 "/>
  <path id="4" class="fil1" d="M165.36 220.44l-3.22 0 -0.59 1.64 -1.01 0 2.66 -7.33 1.11 0 2.66 7.33 -1.02 0 -0.59 -1.64zm-0.28 -0.79l-1.33 -3.72 -1.33 3.72 2.66 0z"/>
  <path id="5" class="fil1" d="M173.72 216.84c-0.21,-0.43 -0.5,-0.76 -0.89,-1 -0.39,-0.24 -0.84,-0.35 -1.36,-0.35 -0.51,0 -0.97,0.11 -1.39,0.35 -0.41,0.24 -0.73,0.58 -0.97,1.02 -0.24,0.44 -0.35,0.95 -0.35,1.52 0,0.58 0.11,1.09 0.35,1.53 0.24,0.44 0.56,0.77 0.97,1.01 0.42,0.23 0.88,0.35 1.39,0.35 0.72,0 1.32,-0.21 1.78,-0.64 0.47,-0.43 0.74,-1.01 0.82,-1.75l-2.94 0 0 -0.78 3.96 0 0 0.74c-0.05,0.61 -0.24,1.16 -0.57,1.67 -0.32,0.5 -0.75,0.9 -1.28,1.19 -0.53,0.29 -1.12,0.44 -1.77,0.44 -0.68,0 -1.3,-0.16 -1.87,-0.48 -0.56,-0.32 -1.01,-0.77 -1.34,-1.34 -0.32,-0.57 -0.49,-1.22 -0.49,-1.94 0,-0.71 0.17,-1.36 0.49,-1.94 0.33,-0.57 0.78,-1.02 1.34,-1.34 0.57,-0.32 1.19,-0.48 1.87,-0.48 0.79,0 1.48,0.19 2.08,0.58 0.61,0.39 1.05,0.93 1.32,1.64l-1.15 0z"/>
  <polygon id="6" class="fil1" points="177.32,215.49 177.32,217.95 180.01,217.95 180.01,218.74 177.32,218.74 177.32,221.28 180.33,221.28 180.33,222.08 176.36,222.08 176.36,214.69 180.33,214.69 180.33,215.49 "/>
  <polygon id="7" class="fil1" points="188.78,214.7 188.78,215.49 185.58,215.49 185.58,217.97 188.18,217.97 188.18,218.75 185.58,218.75 185.58,222.08 184.61,222.08 184.61,214.7 "/>
  <path id="8" class="fil1" d="M193.29 222.15c-0.69,0 -1.31,-0.16 -1.87,-0.48 -0.57,-0.32 -1.01,-0.77 -1.34,-1.34 -0.33,-0.58 -0.49,-1.23 -0.49,-1.95 0,-0.71 0.16,-1.36 0.49,-1.94 0.33,-0.57 0.77,-1.02 1.34,-1.34 0.56,-0.32 1.18,-0.48 1.87,-0.48 0.69,0 1.32,0.16 1.88,0.48 0.57,0.32 1.01,0.77 1.33,1.34 0.33,0.57 0.49,1.22 0.49,1.94 0,0.73 -0.16,1.38 -0.49,1.95 -0.32,0.57 -0.76,1.02 -1.33,1.34 -0.56,0.32 -1.19,0.48 -1.88,0.48zm0 -0.83c0.51,0 0.98,-0.12 1.39,-0.36 0.41,-0.24 0.74,-0.59 0.97,-1.03 0.24,-0.45 0.36,-0.96 0.36,-1.55 0,-0.59 -0.12,-1.1 -0.36,-1.55 -0.23,-0.44 -0.56,-0.78 -0.96,-1.02 -0.41,-0.24 -0.88,-0.36 -1.4,-0.36 -0.52,0 -0.99,0.12 -1.4,0.36 -0.41,0.24 -0.73,0.58 -0.97,1.02 -0.23,0.45 -0.35,0.96 -0.35,1.55 0,0.59 0.12,1.1 0.35,1.55 0.24,0.44 0.57,0.79 0.98,1.03 0.41,0.24 0.87,0.36 1.39,0.36z"/>
  <path id="9" class="fil1" d="M199.2 214.7l0 4.67c0,0.65 0.16,1.14 0.48,1.46 0.32,0.32 0.77,0.47 1.34,0.47 0.57,0 1.01,-0.15 1.33,-0.47 0.32,-0.32 0.48,-0.81 0.48,-1.46l0 -4.67 0.96 0 0 4.66c0,0.61 -0.12,1.13 -0.37,1.55 -0.24,0.42 -0.58,0.73 -1,0.93 -0.42,0.21 -0.89,0.31 -1.41,0.31 -0.52,0 -0.99,-0.1 -1.41,-0.31 -0.42,-0.2 -0.75,-0.51 -1,-0.93 -0.24,-0.42 -0.36,-0.94 -0.36,-1.55l0 -4.66 0.96 0z"/>
  <polygon id="10" class="fil1" points="211.2,222.08 210.24,222.08 206.36,216.21 206.36,222.08 205.4,222.08 205.4,214.69 206.36,214.69 210.24,220.55 210.24,214.69 211.2,214.69 "/>
  <path id="11" class="fil1" d="M215.13 214.7c0.81,0 1.51,0.15 2.09,0.45 0.59,0.3 1.04,0.73 1.36,1.29 0.31,0.56 0.47,1.21 0.47,1.97 0,0.75 -0.16,1.4 -0.47,1.96 -0.32,0.55 -0.77,0.98 -1.36,1.27 -0.58,0.29 -1.28,0.44 -2.09,0.44l-2.29 0 0 -7.38 2.29 0zm0 6.58c0.96,0 1.68,-0.25 2.18,-0.75 0.5,-0.51 0.76,-1.21 0.76,-2.12 0,-0.92 -0.26,-1.64 -0.76,-2.15 -0.51,-0.52 -1.23,-0.77 -2.18,-0.77l-1.33 0 0 5.79 1.33 0z"/>
  <g id="_2360756778832">
   <path class="fil2" d="M177.8 159.1c-0.11,0.26 -6.36,6.35 -7.16,7.19 -1.68,1.74 -3.66,3.66 -5.41,5.4 -1.38,1.37 -1.3,1.57 -1.51,0.43 -0.74,-3.94 0.5,-7.75 3.41,-10.49 2.01,-1.9 4.93,-3.1 7.71,-3.1 0.51,0 2.71,0.19 2.96,0.57zm9.82 -9.78c-0.95,0.93 -1.89,1.87 -2.83,2.81 -0.46,0.46 -0.98,0.93 -1.42,1.39 -1.3,1.38 -1.33,2.05 -3.36,1.22 -2.15,-0.87 -5.27,-1.06 -7.53,-0.71 -5.71,0.86 -10.5,4.75 -12.6,10.11 -1.18,2.99 -1.44,6.63 -0.61,9.74 0.41,1.54 1.53,2.47 0.09,3.76 -1.03,0.92 -1.92,1.85 -2.9,2.83 -1.86,1.85 -3.87,3.75 -5.68,5.64 -0.91,0.96 -1.74,2.57 -2.64,0.55 -0.77,-1.73 -0.71,-3.2 -0.7,-5.04 0.07,-7.53 0.05,-15.14 0.01,-22.67 -0.02,-3.38 -0.15,-6.25 2.99,-8.37 2.76,-1.88 6.94,-1.08 10.17,-1.19 2.17,-0.08 2.64,-0.64 2.92,-2.72 0.22,-1.71 0.45,-2.72 1.61,-4.06 2.53,-2.91 5.51,-2.38 8.97,-2.4 1.79,-0.01 3.89,-0.1 5.65,0.03 1.54,0.11 2.9,0.58 4.08,1.59 0.98,0.85 1.94,2.19 2.21,3.48 0.36,1.77 0,2.72 1.57,4.01zm-28.59 -4.62c-2.35,0 -5.59,-0.24 -7.81,0.39 -1.94,0.55 -3.74,1.59 -5.16,3.03 -3.91,3.95 -3.29,8.07 -3.29,13.16l0 20.52c0,2.79 -0.1,4.39 1.21,7.04 0.5,1 1.08,1.6 1.63,2.49 -0.56,0.55 -1.1,1.12 -1.68,1.65 -0.68,0.62 -1.18,1.21 -1.15,2.19 0.06,2.13 2.35,2.97 3.88,1.74 0.51,-0.41 1.16,-1.18 1.67,-1.68l5.06 -5.06c4.49,-4.47 8.96,-8.96 13.44,-13.44 12.32,-12.32 24.63,-24.68 36.97,-36.97 0.84,-0.83 2.9,-2.59 3.14,-3.64 0.45,-2.05 -1.59,-3.53 -3.38,-2.61 -0.63,0.32 -2.78,2.64 -3.44,3.3 -2.25,2.25 -4.5,4.48 -6.75,6.73 -0.27,0.27 -0.54,0.55 -0.8,0.84 -0.21,0.24 -0.18,0.32 -0.5,0.32 -0.31,0 -0.6,0.02 -0.9,0.02 -0.68,0 -0.49,-0.49 -0.67,-0.98 -0.69,-1.98 -1.62,-3.74 -3.25,-5.18 -1.28,-1.14 -2.6,-1.95 -4.25,-2.48 -2.18,-0.71 -3.95,-0.54 -6.19,-0.54 -2.24,0 -4.49,0.01 -6.73,0 -5.2,-0.03 -9.95,3.9 -11.05,9.16z"/>
   <path class="fil2" d="M202.42 148.18c-0.66,0.05 -1.56,0.63 -1.84,1.25 -0.81,1.75 0.85,3.17 1.29,4.33 0.31,0.8 0.42,1.77 0.45,2.62 0.08,1.99 0,4.13 0,6.14 0,6.1 -0.04,12.27 0,18.36 0.03,3.65 0.08,6.72 -3.53,8.75 -1.68,0.95 -3.34,0.9 -5.21,0.88 -6.07,-0.05 -12.33,0 -18.42,0 -4.05,0 -8.19,0.08 -12.23,0 -1.55,-0.03 -4.12,-0.41 -4.74,1.44 -0.67,1.96 0.57,3.12 2.44,3.23 1,0.06 2.04,-0.01 3.04,-0.01 9.17,-0.01 18.41,0.06 27.57,0.01 1.88,-0.01 4.2,0.14 6.02,-0.12 3.01,-0.42 5.83,-2.22 7.6,-4.68 2.45,-3.42 2.12,-6.12 2.13,-10.09l0.01 -18.37c0,-2.01 0.07,-4.14 -0.01,-6.13 -0.08,-2.31 -1.52,-7.83 -4.57,-7.61z"/>
   <path class="fil2" d="M187.34 163.07c-0.74,0.14 -1.33,0.66 -1.64,1.34 -0.41,0.88 -0.14,1.53 0.12,2.38 0.54,1.7 0.56,3.52 0.25,5.26 -0.51,2.86 -2.29,5.59 -4.68,7.23 -2.73,1.87 -6.24,2.57 -9.44,1.66 -0.85,-0.24 -1.49,-0.59 -2.4,-0.27 -0.68,0.25 -1.28,0.81 -1.49,1.51 -0.59,1.97 0.89,2.83 2.5,3.26 6.34,1.7 13.01,-0.42 17.03,-5.64 3.07,-3.99 4.17,-9.11 2.86,-13.97 -0.43,-1.6 -1.05,-3.17 -3.11,-2.76z"/>
  </g>
 </g>
</svg>
