<?xml version="1.0" encoding="UTF-8"?>
<!DOCTYPE svg PUBLIC "-//W3C//DTD SVG 1.1//EN" "http://www.w3.org/Graphics/SVG/1.1/DTD/svg11.dtd">
<!-- Creator: CorelDRAW 2019 (64-Bit) -->
<svg xmlns="http://www.w3.org/2000/svg" xml:space="preserve" width="250px" height="250px" version="1.1" style="shape-rendering:geometricPrecision; text-rendering:geometricPrecision; image-rendering:optimizeQuality; fill-rule:evenodd; clip-rule:evenodd"
viewBox="0 0 250 250"
 xmlns:xlink="http://www.w3.org/1999/xlink">
 <defs>
  <style type="text/css">
   <![CDATA[
    .fil1 {fill:#959595}
    .fil0 {fill:#CCCCCC}
   ]]>
  </style>
 </defs>
 <g id="Layer_x0020_1">
  <metadata id="CorelCorpID_0Corel-Layer"/>
  <rect class="fil0" width="250" height="250"/>
  <g id="_2956283938528">
   <g id="Layer_x0020_1_0">
    <path class="fil1" d="M126.02 151.27c-19.07,0.03 -30.5,6.05 -40.25,18.37 -3.53,4.46 -6.73,10.83 -8.33,16.38 -3.26,11.25 -1.54,18.4 1.76,18.38l92.66 -0.69c3.3,-0.02 3.63,-8.82 -1.33,-21.92 -7.03,-18.56 -25.45,-30.56 -44.51,-30.52l0 0zm14.91 -73.55c9.82,5.64 16.28,15.4 16.49,26.63 0.37,19.74 -13.17,35.79 -32.81,35.86 -20.16,0.08 -35.45,-15.84 -33.8,-36.25 1.45,-18.01 15.13,-30.83 33.41,-30.57 5.69,0.08 10.46,0.74 16.71,4.33z"/>
   </g>
  </g>
 </g>
</svg>
