<svg xmlns="http://www.w3.org/2000/svg" viewBox="0 0 250 250">
  <g id="Layer_x0020_1">
  <path fill="currentColor" d="M224.69 221.44c0,14.45 -11.84,26.27 -26.27,26.27l-147.01 0c-14.45,0 -26.27,-11.82 -26.27,-26.27l0 -88.6c0,-14.46 11.82,-26.27 26.27,-26.27l3.55 0 0 -34.1c0,-38.6 31.36,-70.01 69.92,-70.01 38.58,0 69.96,31.39 69.96,70.01l0 34.1 3.55 0c14.41,0 26.28,11.81 26.28,26.27l0 88.6 0.02 0zm-99.81 -183.95c-19.24,0 -34.89,15.69 -34.89,35l0 34.1 69.85 0 0 -34.1c0,-19.31 -15.72,-35 -34.96,-35z"/>
 </g>
</svg>
