<svg xmlns="http://www.w3.org/2000/svg" viewBox="0 0 250 250">
  <g id="Layer_x0020_1">
  <path fill="currentColor" d="M5.98 138.18c-0.15,-0.18 0.15,0.19 0,0 -1.15,-1.57 -1.12,-3.44 0.01,-5.02 0.08,-0.12 0.16,-0.24 0.25,-0.36 33.73,-49.25 75.56,-75.45 118.81,-75.45 43.19,0 84.99,26.13 118.69,75.28 0.64,0.93 0.96,1.89 0.96,3.03 0,1.21 -0.38,2.22 -1.05,3.2 -33.69,49.06 -75.44,75.13 -118.6,75.13 -43.36,0 -85.3,-26.32 -119.07,-75.81zm26.23 -8.48c-2.77,3.45 -2.77,8.48 0,11.93 28.89,35.91 61.42,52.78 92.84,52.78 31.42,0 63.94,-16.87 92.83,-52.78 2.77,-3.45 2.77,-8.48 0,-11.93 -28.89,-35.91 -61.41,-52.77 -92.83,-52.77 -31.42,0 -63.95,16.86 -92.84,52.77zm127.23 19.01c2.2,-4.99 3.43,-10.53 3.43,-13.03 0,-21.62 -16.81,-39.16 -37.53,-39.16 -20.72,0 -37.53,17.54 -37.53,39.16 0,21.63 18.77,35.82 37.53,35.82 12,0 22.68,-5.87 29.54,-15.01 1.79,-2.39 3.33,-5 4.56,-7.78zm-34.1 3.21c4.69,0 8.98,-1.8 12.28,-4.77 3.97,-3.59 5.72,-8.89 5.72,-11.47 0,-10.81 -7.63,-19.58 -18,-19.58 -10.37,0 -18.85,8.76 -18.85,19.57 0,7.47 8.48,16.25 18.85,16.25z"/>
 </g>
</svg>
