<svg xmlns="http://www.w3.org/2000/svg" viewBox="0 0 250 250">
  <g id="Layer_x0020_1">
    <path fill="currentColor" d="M25.07 47.96l199.7 0c5.89,0 11.24,2.4 15.12,6.28 3.87,3.87 6.28,9.22 6.28,15.12l0 111.45c0,5.9 -2.41,11.25 -6.28,15.12 -3.88,3.88 -9.23,6.28 -15.12,6.28l-199.7 0c-5.9,0 -11.25,-2.4 -15.13,-6.28 -3.87,-3.87 -6.28,-9.22 -6.28,-15.12l0 -111.45c0,-5.9 2.41,-11.25 6.28,-15.12 3.88,-3.88 9.23,-6.28 15.13,-6.28zm-6.29 32.56l212.27 0 0 -11.16c0,-1.72 -0.71,-3.29 -1.85,-4.43 -1.15,-1.15 -2.71,-1.85 -4.43,-1.85l-199.7 0c-1.72,0 -3.29,0.7 -4.44,1.85 -1.14,1.14 -1.85,2.71 -1.85,4.43l0 11.16zm212.27 22.17l-212.27 0 0 78.12c0,1.72 0.71,3.29 1.85,4.43 1.15,1.14 2.72,1.85 4.44,1.85l199.7 0c1.72,0 3.28,-0.71 4.43,-1.85 1.14,-1.14 1.85,-2.71 1.85,-4.43l0 -78.12z"/>
  <path fill="currentColor" d="M186.88 142.52l26.44 0c1.31,0 2.39,1.07 2.39,2.38l0 26.44c0,1.31 -1.08,2.39 -2.39,2.39l-26.44 0c-1.31,0 -2.38,-1.08 -2.38,-2.39l0 -26.44c0,-1.31 1.07,-2.38 2.38,-2.38zm-154.89 -2.84l82.29 0c0.84,0 1.52,0.68 1.52,1.52l0 5.04c0,0.83 -0.68,1.51 -1.52,1.51l-82.29 0c-0.83,0 -1.51,-0.68 -1.51,-1.51l0 -5.04c0,-0.84 0.68,-1.52 1.51,-1.52zm0 -20.64l110.46 0c0.84,0 1.52,0.68 1.52,1.51l0 5.04c0,0.83 -0.68,1.51 -1.52,1.51l-110.46 0c-0.83,0 -1.51,-0.68 -1.51,-1.51l0 -5.04c0,-0.83 0.68,-1.51 1.51,-1.51z"/>
 </g>
</svg>
