<svg xmlns="http://www.w3.org/2000/svg" viewBox="0 0 250 250">
  <g id="Layer_x0020_1">
  <path fill="currentColor" d="M124.86 209.8c4.9,0 8.87,3.97 8.87,8.87 0,4.9 -3.97,8.87 -8.87,8.87 -4.9,0 -8.87,-3.97 -8.87,-8.87 0,-4.9 3.97,-8.87 8.87,-8.87zm-56.51 -204.79l113.02 0c5.86,0 11.19,2.39 15.04,6.25 3.86,3.86 6.25,9.18 6.25,15.04l0 197.68c0,5.86 -2.39,11.19 -6.25,15.04 -3.85,3.86 -9.18,6.25 -15.04,6.25l-113.02 0c-5.86,0 -11.19,-2.39 -15.04,-6.25 -3.86,-3.85 -6.25,-9.18 -6.25,-15.04l0 -197.68c0,-5.86 2.39,-11.18 6.25,-15.04 3.85,-3.86 9.18,-6.25 15.04,-6.25zm-9.2 27.01l131.42 0 0 -5.72c0,-2.52 -1.04,-4.82 -2.71,-6.49 -1.67,-1.67 -3.97,-2.71 -6.49,-2.71l-113.02 0c-2.52,0 -4.82,1.04 -6.49,2.71 -1.67,1.67 -2.71,3.97 -2.71,6.49l0 5.72zm131.42 12.09l-131.42 0 0 148.35 131.42 0 0 -148.35zm0 160.45l-131.42 0 0 19.42c0,2.52 1.04,4.82 2.71,6.49 1.67,1.67 3.97,2.71 6.49,2.71l113.02 0c2.52,0 4.82,-1.04 6.49,-2.71 1.67,-1.67 2.71,-3.97 2.71,-6.49l0 -19.42z"/>
 </g>
</svg>
