<svg xmlns="http://www.w3.org/2000/svg" viewBox="0 0 250 250">
  <g id="Layer_x0020_1">
    <path fill="currentColor" d="M222.52 205.99c4.87,4.95 11.05,10.44 15.54,15.57 9.79,11.22 -5.61,24.56 -14.94,15.51l-62.99 -61.15c-15.87,12.52 -35.91,19.99 -57.69,19.99 -51.5,0 -93.24,-41.75 -93.24,-93.24 0,-51.5 41.74,-93.24 93.24,-93.24 51.5,0 93.24,41.74 93.24,93.24 0,21.28 -7.13,40.89 -19.13,56.58l45.97 46.74zm-79.93 -47.1l-0.16 -0.15 11.66 -10.2c10.84,-12.2 17.43,-28.27 17.43,-45.87 0,-38.16 -30.93,-69.09 -69.08,-69.09 -38.15,0 -69.08,30.93 -69.08,69.09 0,38.15 30.93,69.08 69.08,69.08 14.97,0 28.83,-4.76 40.15,-12.86z"/>
 </g>
</svg>
