<svg xmlns="http://www.w3.org/2000/svg" viewBox="0 0 250 250">
  <g id="Layer_x0020_1">
    <path fill="currentColor" d="M247.04 55.32c0,28.91 -23.46,52.37 -52.36,52.37 -15.77,0 -29.89,-6.98 -39.49,-18l-48.93 24.49c0.76,3.54 1.15,7.2 1.15,10.96 0,3.76 -0.39,7.42 -1.15,10.96l48.93 24.49c9.6,-11.01 23.72,-17.99 39.49,-17.99 28.9,0 52.36,23.45 52.36,52.36 0,28.91 -23.46,52.36 -52.36,52.36 -28.91,0 -52.37,-23.45 -52.37,-52.36 0,-3.77 0.39,-7.42 1.15,-10.97l-48.93 -24.49c-9.6,11.02 -23.72,18 -39.49,18 -28.91,0 -52.36,-23.45 -52.36,-52.36 0,-28.91 23.45,-52.36 52.36,-52.36 15.77,0 29.89,6.98 39.49,18l48.93 -24.49c-0.76,-3.55 -1.15,-7.2 -1.15,-10.97 0,-28.9 23.46,-52.36 52.37,-52.36 28.9,0 52.36,23.46 52.36,52.36zm-192 96c14.46,0 26.18,-11.72 26.18,-26.18 0,-14.46 -11.72,-26.18 -26.18,-26.18 -14.45,0 -26.18,11.72 -26.18,26.18 0,14.46 11.73,26.18 26.18,26.18l0 0zm165.82 -96c0,-14.45 -11.73,-26.18 -26.18,-26.18 -14.46,0 -26.19,11.73 -26.19,26.18 0,14.46 11.73,26.19 26.19,26.19 14.45,0 26.18,-11.73 26.18,-26.19zm-26.18 165.82c14.45,0 26.18,-11.73 26.18,-26.18 0,-14.46 -11.73,-26.18 -26.18,-26.18 -14.46,0 -26.19,11.72 -26.19,26.18 0,14.45 11.73,26.18 26.19,26.18l0 0z"/>
  </g>
</svg>