<svg xmlns="http://www.w3.org/2000/svg" viewBox="0 0 250 250">
  <g id="Layer_x0020_1">
  <path id="__xd83c__xdfa8_-Color" fill="currentColor" d="M136.94 76.96c38.14,0 59.78,25.25 62.92,55.73l0.97 0c24.54,0 44.44,19.85 44.44,44.33 0,24.48 -19.9,44.33 -44.44,44.33l-127.78 0c-24.54,0 -44.44,-19.85 -44.44,-44.33 0,-24.48 19.9,-44.33 44.44,-44.33l0.97 0c3.16,-30.69 24.78,-55.73 62.92,-55.73zm0 15.02c-25.65,0 -48,20.75 -48,49.41 0,4.55 -3.95,8.11 -8.47,8.11l-8.55 0c-15.61,0 -28.27,12.72 -28.27,28.41 0,15.7 12.66,28.42 28.27,28.42l130.04 0c15.61,0 28.27,-12.72 28.27,-28.42 0,-15.69 -12.66,-28.41 -28.27,-28.41l-8.55 0c-4.52,0 -8.47,-3.56 -8.47,-8.11 0,-29.03 -22.35,-49.41 -48,-49.41zm-104.06 34.9c1.48,3.58 -0.02,7.65 -3.36,9.45l-0.7 0.33 -13.91 5.78c-3.82,1.59 -8.19,-0.23 -9.78,-4.05 -1.48,-3.58 0.02,-7.65 3.36,-9.45l0.69 -0.33 13.92 -5.78c3.82,-1.59 8.19,0.23 9.78,4.05zm78.24 -58.03l-0.37 0.12c-5.57,1.81 -10.74,4.22 -15.47,7.16 -7.88,-3.33 -17.03,-3.63 -25.56,-0.09 -16.89,6.99 -24.91,26.36 -17.91,43.25 0.68,1.65 1.48,3.21 2.39,4.68 -4.57,1.64 -8.87,3.85 -12.8,6.55 -1.06,-1.83 -2.02,-3.74 -2.85,-5.75 -10.02,-24.2 1.47,-51.96 25.68,-61.99 16.16,-6.69 33.89,-3.79 46.89,6.07zm-97.07 1.08l0.76 0.28 13.96 5.95c3.79,1.6 5.61,5.99 4.06,9.8 -1.45,3.56 -5.31,5.36 -8.9,4.28l-0.77 -0.27 -13.95 -5.96c-3.79,-1.6 -5.61,-5.99 -4.06,-9.8 1.44,-3.56 5.31,-5.36 8.9,-4.28zm44.35 -37.16l0.33 0.7 5.78 13.88c1.59,3.84 -0.24,8.24 -4.08,9.83 -3.59,1.49 -7.69,-0.02 -9.49,-3.38l-0.34 -0.69 -5.78 -13.88c-1.59,-3.84 0.24,-8.24 4.08,-9.83 3.59,-1.49 7.69,0.02 9.5,3.37zm54.45 -3.37c3.63,1.5 5.47,5.48 4.4,9.16l-0.28 0.78 -5.97 13.7c-1.6,3.88 -6.05,5.72 -9.93,4.11 -3.62,-1.5 -5.47,-5.47 -4.39,-9.15l0.27 -0.78 5.97 -13.7c1.6,-3.88 6.05,-5.72 9.93,-4.12z"/>
 </g>
</svg>
