<svg xmlns="http://www.w3.org/2000/svg" viewBox="0 0 250 250">
  <g id="Layer_x0020_1">
  <path fill="currentColor" d="M146.59 186.14c16.4,-6.34 29.53,-18.77 36.72,-34.81 1.1,-2.49 2.03,-4.98 2.84,-7.58l-10.52 -3.23c-5.06,16.32 -17.1,29.2 -33.04,35.36l4 10.26zm-23.78 -56.33l6.97 -9.38 6.97 -9.39 -8.43 0 0 -51.42 -11.02 0 0 51.42 -8.44 0 6.98 9.39 6.97 9.38zm75.28 -5.5l-9.38 6.97 -9.39 6.97 0 -8.44 -46 0 6.97 -9.38 1.21 -1.63 37.82 0 0 -8.44 9.39 6.97 9.38 6.98zm-91.5 -64.28c-19.81,5.01 -36.01,18.71 -44.35,37.35l10.06 4.47c6.98,-15.57 20.46,-26.97 37.03,-31.16l-2.74 -10.66zm-48.21 48.71c-1.2,5.29 -1.82,10.11 -1.84,15.54 0.04,9.82 2.06,19.1 6.2,28.01 2.2,4.7 4.88,9.03 8.1,13.11l8.62 -6.85c-7.79,-9.84 -11.87,-21.73 -11.91,-34.27 0.01,-4.52 0.54,-8.56 1.54,-12.96l-10.71 -2.58zm20.71 65.34c8.18,7.23 18.14,12.3 28.76,14.77 4.98,1.14 9.85,1.68 14.96,1.7 4.13,-0.01 8.17,-0.38 12.23,-1.14l-2.05 -10.81c-3.35,0.63 -6.77,0.93 -10.18,0.94 -13.54,-0.04 -26.21,-4.78 -36.41,-13.69l-0.05 -0.04 -7.26 8.27zm120.07 -70.85l5.83 0c1.11,0 1.72,0 2.1,-0.3 0.24,-0.19 0.52,-0.52 0.8,-0.89 0.38,-0.5 0.71,-1.06 0.92,-1.47 0.11,-0.23 0.17,-0.39 0.19,-0.69 0.05,-0.54 0.04,-1.29 0.02,-2.62l-0.13 -11.24c-0.02,-1.59 -0.04,-2.6 0,-3.3 0.06,-0.97 0.22,-1.54 0.54,-2.12 0.3,-0.54 0.73,-1 1.22,-1.37 0.48,-0.38 1.05,-0.67 1.62,-0.87 0.54,-0.19 1.04,-0.28 2.08,-0.32 1.02,-0.04 2.28,-0.04 4.44,-0.04l14.57 0c0.29,-0.95 0.81,-1.8 1.5,-2.49 1.08,-1.08 2.58,-1.76 4.24,-1.76 1.65,0 3.15,0.68 4.24,1.76 1.08,1.09 1.75,2.58 1.75,4.24 0,1.65 -0.67,3.15 -1.75,4.24 -1.09,1.08 -2.59,1.75 -4.24,1.75 -1.66,0 -3.16,-0.67 -4.24,-1.75 -0.69,-0.69 -1.21,-1.54 -1.5,-2.49l-14.57 0c-2.31,0 -3.65,0 -4.31,0.02 -0.63,0.02 -0.88,0.06 -1.08,0.13 -0.21,0.08 -0.44,0.19 -0.63,0.35 -0.13,0.1 -0.24,0.2 -0.3,0.3 -0.05,0.09 -0.07,0.26 -0.1,0.63 -0.03,0.65 -0.02,1.58 -0.01,3.05l0.14 11.24c0.02,1.52 0.03,2.38 -0.02,2.96 -0.07,0.83 -0.23,1.3 -0.56,1.96 -0.28,0.56 -0.73,1.3 -1.23,1.98 -0.43,0.57 -0.92,1.12 -1.43,1.53 -1.35,1.08 -2.39,1.08 -4.27,1.08l-5.83 0 0 -3.5zm1.6 27.11l0 5.83c0,1.11 0,1.72 0.29,2.09 0.2,0.25 0.53,0.53 0.9,0.81 0.5,0.37 1.05,0.7 1.47,0.92 0.23,0.11 0.39,0.17 0.69,0.19 0.54,0.05 1.29,0.04 2.62,0.02l11.24 -0.14c1.59,-0.02 2.6,-0.03 3.3,0.01 0.97,0.06 1.54,0.21 2.12,0.54 0.54,0.3 1,0.73 1.38,1.22 0.37,0.48 0.66,1.05 0.86,1.62 0.19,0.54 0.28,1.04 0.32,2.08 0.04,1.02 0.04,2.28 0.04,4.44l0 14.57c0.95,0.29 1.8,0.81 2.49,1.5 1.08,1.08 1.76,2.58 1.76,4.24 0,1.65 -0.68,3.15 -1.76,4.23 -1.09,1.09 -2.58,1.76 -4.24,1.76 -1.65,0 -3.15,-0.67 -4.24,-1.76 -1.08,-1.08 -1.75,-2.58 -1.75,-4.23 0,-1.66 0.67,-3.16 1.75,-4.24 0.69,-0.69 1.54,-1.21 2.49,-1.5l0 -14.57c0,-2.31 0,-3.66 -0.02,-4.31 -0.02,-0.63 -0.06,-0.88 -0.13,-1.08 -0.08,-0.22 -0.19,-0.44 -0.35,-0.64 -0.1,-0.13 -0.2,-0.23 -0.3,-0.29 -0.09,-0.05 -0.26,-0.08 -0.63,-0.1 -0.65,-0.04 -1.58,-0.02 -3.05,-0.01l-11.24 0.14c-1.52,0.02 -2.38,0.03 -2.96,-0.02 -0.83,-0.07 -1.3,-0.24 -1.96,-0.56 -0.56,-0.29 -1.3,-0.73 -1.98,-1.23 -0.57,-0.43 -1.12,-0.92 -1.53,-1.44 -1.08,-1.34 -1.08,-2.38 -1.08,-4.26l0 -5.83 3.5 0zm21.71 41.7c0.46,0.46 1.08,0.74 1.77,0.74 0.69,0 1.32,-0.28 1.77,-0.74 0.45,-0.45 0.73,-1.07 0.73,-1.76 0,-0.69 -0.28,-1.32 -0.73,-1.77 -0.45,-0.45 -1.08,-0.73 -1.77,-0.73 -0.69,0 -1.31,0.28 -1.77,0.73 -0.45,0.45 -0.73,1.08 -0.73,1.77 0,0.69 0.28,1.31 0.73,1.76zm-2.47 -47.48l-15.13 0 0 -3.49 15.13 0c0.29,-0.96 0.81,-1.81 1.49,-2.49 1.09,-1.09 2.58,-1.76 4.24,-1.76 1.65,0 3.15,0.67 4.24,1.76 1.08,1.08 1.75,2.58 1.75,4.23 0,1.66 -0.67,3.16 -1.75,4.24 -1.09,1.09 -2.59,1.76 -4.24,1.76 -1.66,0 -3.15,-0.67 -4.24,-1.76 -0.68,-0.68 -1.2,-1.54 -1.49,-2.49zm7.5 0.02c0.45,-0.45 0.73,-1.08 0.73,-1.77 0,-0.69 -0.28,-1.31 -0.73,-1.76 -0.45,-0.46 -1.08,-0.74 -1.77,-0.74 -0.69,0 -1.32,0.28 -1.77,0.74 -0.45,0.45 -0.73,1.07 -0.73,1.76 0,0.69 0.28,1.32 0.73,1.77 0.45,0.45 1.08,0.73 1.77,0.73 0.69,0 1.32,-0.28 1.77,-0.73zm13.37 -43.06c0.45,-0.46 0.73,-1.08 0.73,-1.77 0,-0.69 -0.28,-1.32 -0.73,-1.77 -0.46,-0.45 -1.08,-0.73 -1.77,-0.73 -0.69,0 -1.32,0.28 -1.77,0.73 -0.45,0.45 -0.73,1.08 -0.73,1.77 0,0.69 0.28,1.31 0.73,1.77 0.45,0.45 1.08,0.73 1.77,0.73 0.69,0 1.31,-0.28 1.77,-0.73zm-190.2 54.08l-5.83 0c-1.11,0 -1.72,0 -2.1,-0.29 -0.24,-0.2 -0.52,-0.53 -0.8,-0.9 -0.38,-0.5 -0.71,-1.05 -0.92,-1.47 -0.11,-0.23 -0.17,-0.39 -0.19,-0.69 -0.05,-0.54 -0.04,-1.29 -0.02,-2.62l0.14 -11.24c0.02,-1.59 0.03,-2.6 -0.01,-3.3 -0.06,-0.97 -0.21,-1.54 -0.54,-2.12 -0.3,-0.54 -0.73,-1 -1.22,-1.37 -0.48,-0.38 -1.05,-0.67 -1.62,-0.87 -0.54,-0.19 -1.04,-0.28 -2.08,-0.32 -1.02,-0.04 -2.28,-0.04 -4.44,-0.04l-14.57 0c-0.29,-0.95 -0.81,-1.8 -1.5,-2.49 -1.08,-1.08 -2.58,-1.75 -4.24,-1.75 -1.65,0 -3.15,0.67 -4.23,1.75 -1.09,1.09 -1.76,2.58 -1.76,4.24 0,1.65 0.67,3.15 1.76,4.24 1.08,1.08 2.58,1.75 4.23,1.75 1.66,0 3.16,-0.67 4.24,-1.75 0.69,-0.69 1.21,-1.54 1.5,-2.49l14.57 0c2.31,0 3.65,0 4.31,0.02 0.63,0.03 0.88,0.06 1.08,0.13 0.21,0.08 0.44,0.19 0.64,0.35 0.13,0.1 0.23,0.2 0.29,0.3 0.05,0.09 0.08,0.26 0.1,0.63 0.04,0.65 0.02,1.58 0.01,3.05l-0.14 11.24c-0.02,1.52 -0.03,2.38 0.02,2.96 0.07,0.83 0.23,1.3 0.56,1.96 0.29,0.56 0.73,1.3 1.23,1.98 0.43,0.57 0.92,1.12 1.43,1.53 1.35,1.08 2.39,1.08 4.27,1.08l5.83 0 0 -3.5zm6.96 16.66l-35.02 0c-0.29,0.95 -0.81,1.8 -1.5,2.49 -1.09,1.08 -2.58,1.75 -4.24,1.75 -1.65,0 -3.15,-0.67 -4.24,-1.75 -1.08,-1.09 -1.75,-2.58 -1.75,-4.24 0,-1.65 0.67,-3.15 1.75,-4.24 1.09,-1.08 2.59,-1.75 4.24,-1.75 1.66,0 3.15,0.67 4.24,1.75 0.69,0.69 1.21,1.54 1.5,2.49l35.02 0 0 3.5zm-42.53 -3.52c-0.45,0.45 -0.73,1.08 -0.73,1.77 0,0.69 0.28,1.32 0.73,1.77 0.46,0.45 1.08,0.73 1.77,0.73 0.69,0 1.32,-0.28 1.77,-0.73 0.45,-0.45 0.73,-1.08 0.73,-1.77 0,-0.69 -0.28,-1.32 -0.73,-1.77 -0.45,-0.45 -1.08,-0.73 -1.77,-0.73 -0.69,0 -1.31,0.28 -1.77,0.73zm20.85 -50.97l15.13 0 0 3.49 -15.13 0c-0.29,0.95 -0.81,1.81 -1.5,2.49 -1.08,1.09 -2.58,1.76 -4.23,1.76 -1.66,0 -3.16,-0.67 -4.24,-1.76 -1.09,-1.08 -1.76,-2.58 -1.76,-4.24 0,-1.65 0.67,-3.15 1.76,-4.23 1.08,-1.09 2.58,-1.76 4.24,-1.76 1.65,0 3.15,0.67 4.23,1.76 0.69,0.68 1.21,1.54 1.5,2.49zm-7.5 -0.02c-0.45,0.45 -0.73,1.07 -0.73,1.76 0,0.69 0.28,1.32 0.73,1.77 0.45,0.45 1.08,0.73 1.77,0.73 0.69,0 1.31,-0.28 1.77,-0.73 0.45,-0.45 0.73,-1.08 0.73,-1.77 0,-0.69 -0.28,-1.31 -0.73,-1.76 -0.46,-0.46 -1.08,-0.74 -1.77,-0.74 -0.69,0 -1.32,0.28 -1.77,0.74zm-19.48 16.14c-0.46,-0.46 -0.74,-1.08 -0.74,-1.77 0,-0.69 0.28,-1.32 0.74,-1.77 0.45,-0.45 1.07,-0.73 1.76,-0.73 0.69,0 1.32,0.28 1.77,0.73 0.45,0.45 0.73,1.08 0.73,1.77 0,0.69 -0.28,1.31 -0.73,1.77 -0.45,0.45 -1.08,0.73 -1.77,0.73 -0.69,0 -1.31,-0.28 -1.76,-0.73z"/>
 </g>
</svg>
