<?xml version="1.0" encoding="UTF-8"?>
<!DOCTYPE svg PUBLIC "-//W3C//DTD SVG 1.1//EN" "http://www.w3.org/Graphics/SVG/1.1/DTD/svg11.dtd">
<!-- Creator: CorelDRAW 2019 (64-Bit) -->
<svg xmlns="http://www.w3.org/2000/svg" xml:space="preserve" width="256px" height="20px" version="1.1" style="shape-rendering:geometricPrecision; text-rendering:geometricPrecision; image-rendering:optimizeQuality; fill-rule:evenodd; clip-rule:evenodd"
viewBox="0 0 256 20"
 xmlns:xlink="http://www.w3.org/1999/xlink">
 <defs>
  <style type="text/css">
   <![CDATA[
    .fil0 {fill:#CCB67D;fill-rule:nonzero}
   ]]>
  </style>
 </defs>
 <g id="Layer_x0020_1">
  <metadata id="CorelCorpID_0Corel-Layer"/>
  <path class="fil0" d="M0 5.31l0 -4.19 15.69 0 0 4.19 -5.57 0 0 13.64 -4.2 0 0 -13.64 -5.92 0zm32.1 -1.79l0 13.03c0,0.67 -0.24,1.24 -0.71,1.7 -0.47,0.46 -1.04,0.7 -1.7,0.7l-12.61 0 0 -17.83 12.61 0c0.66,0 1.23,0.24 1.7,0.7 0.47,0.47 0.71,1.03 0.71,1.7zm-4.21 11.24l0 -9.45 -6.62 0 0 9.45 6.62 0zm18.1 -13.64c0.75,0 1.38,0.27 1.9,0.8 0.52,0.52 0.78,1.15 0.78,1.89l0 6.67c0,0.74 -0.26,1.37 -0.78,1.9 -0.52,0.52 -1.15,0.78 -1.9,0.78l-8.31 0 3.67 -4.2 3.13 0 0 -3.65 -6.8 0 0 13.64 -4.19 0 0 -17.83 12.5 0zm13.74 2.69c0,-0.74 0.26,-1.37 0.79,-1.89 0.53,-0.53 1.16,-0.8 1.89,-0.8l12.33 0 0 4.19 -10.82 0 0 2.63 8.14 0c0.75,0 1.38,0.26 1.9,0.78 0.52,0.52 0.78,1.15 0.78,1.89l0 5.65c0,0.75 -0.26,1.39 -0.78,1.91 -0.53,0.52 -1.16,0.78 -1.9,0.78l-12.22 0 0 -4.19 10.69 0 0 -2.63 -8.12 0c-0.74,0 -1.38,-0.26 -1.9,-0.78 -0.52,-0.52 -0.78,-1.15 -0.78,-1.88l0 -5.66zm16.41 -2.69l17.68 0 0 4.19 -5.57 0 0 13.64 -4.2 0 0 -13.64 -5.91 0 -2 -4.19zm21.21 17.83l5.44 -4.19 3.21 0 -3.44 -8.29 -5.21 12.48 -4.55 0 7.42 -17.83 4.68 0 7.41 17.83 -14.96 0zm29.32 -5.84l3.28 5.84 -5.2 0 -3.26 -5.79 -3.59 0 3.66 -4.2 3.14 0 0 -3.65 -6.8 0 0 13.64 -4.19 0 0 -17.83 12.49 0c0.75,0 1.39,0.27 1.91,0.8 0.52,0.52 0.78,1.15 0.78,1.89l0 6.67c0,0.65 -0.22,1.23 -0.64,1.72 -0.42,0.5 -0.95,0.8 -1.58,0.91zm26.95 -11.99c0.66,0 1.23,0.24 1.7,0.7 0.47,0.47 0.71,1.03 0.71,1.7l0 13.03c0,0.67 -0.24,1.24 -0.71,1.7 -0.47,0.46 -1.04,0.7 -1.7,0.7l-2.98 0 0 1.25 -4.2 0 0 -1.25 -5.43 0 0 -17.83 12.61 0zm-1.8 13.64l0 -9.45 -6.62 0 0 9.45 1.21 0 0 -1 4.22 0 0 1 1.19 0zm16.41 0l0 -13.64 4.21 0 0 15.43c0,0.67 -0.24,1.24 -0.71,1.7 -0.47,0.46 -1.04,0.7 -1.7,0.7l-12.61 0 0 -17.83 4.19 0 0 13.64 6.62 0zm9.6 4.19l5.44 -4.19 3.21 0 -3.45 -8.29 -5.2 12.48 -4.56 0 7.42 -17.83 4.68 0 7.42 17.83 -14.96 0zm20.54 -4.19l10.83 0 0 4.19 -12.62 0c-0.67,0 -1.23,-0.24 -1.7,-0.7 -0.46,-0.46 -0.7,-1.03 -0.7,-1.7l0 -15.43 4.19 0 0 13.64zm16.41 4.19l-4.19 0 0 -17.83 4.19 0 0 17.83zm1.37 -17.83l17.69 0 0 4.19 -5.57 0 0 13.64 -4.21 0 0 -13.64 -5.91 0 -2 -4.19zm31.77 0l4.21 0 -5.56 11.01 -3.45 6.82 -4.19 0 8.99 -17.83zm-4.62 6.52l-2.07 3.76 -6 -10.28 4.19 0 3.88 6.52z"/>
 </g>
</svg>
