<svg xmlns="http://www.w3.org/2000/svg" viewBox="0 0 250 250">
  <g id="Layer_x0020_1">
  <path fill="currentColor" d="M79.97 223.47c91.32,0 141.26,-75.65 141.26,-141.26 0,-2.15 -0.05,-4.28 -0.14,-6.41 9.71,-7.03 18.1,-15.74 24.76,-25.71 -8.9,3.95 -18.47,6.62 -28.51,7.82 10.25,-6.15 18.12,-15.87 21.83,-27.47 -9.74,5.79 -20.41,9.86 -31.52,12.05 -9.06,-9.64 -21.96,-15.68 -36.24,-15.68 -27.42,0 -49.65,22.23 -49.65,49.64 0,3.9 0.43,7.69 1.29,11.32 -41.27,-2.08 -77.86,-21.83 -102.34,-51.87 -4.41,7.57 -6.73,16.19 -6.72,24.95 0,17.23 8.76,32.43 22.09,41.33 -7.89,-0.24 -15.6,-2.37 -22.49,-6.21 0,0.21 0,0.41 0,0.63 0,24.05 17.11,44.12 39.83,48.67 -4.27,1.16 -8.67,1.75 -13.09,1.75 -3.14,0 -6.26,-0.31 -9.34,-0.9 6.32,19.73 24.65,34.08 46.38,34.48 -16.99,13.32 -38.39,21.25 -61.66,21.25 -4,0 -7.95,-0.22 -11.84,-0.68 21.97,14.08 48.06,22.3 76.1,22.3l0 0z"/>
 </g>
</svg>
