<?xml version="1.0" encoding="UTF-8"?>
<!DOCTYPE svg PUBLIC "-//W3C//DTD SVG 1.1//EN" "http://www.w3.org/Graphics/SVG/1.1/DTD/svg11.dtd">
<!-- Creator: CorelDRAW 2019 (64-Bit) -->
<svg xmlns="http://www.w3.org/2000/svg" xml:space="preserve" width="250px" height="250px" version="1.1" style="shape-rendering:geometricPrecision; text-rendering:geometricPrecision; image-rendering:optimizeQuality; fill-rule:evenodd; clip-rule:evenodd"
viewBox="0 0 250 250"
 xmlns:xlink="http://www.w3.org/1999/xlink">
 <defs>
  <style type="text/css">
   <![CDATA[
    .fil0 {fill:black}
   ]]>
  </style>
 </defs>
 <g id="Layer_x0020_1">
  <metadata id="CorelCorpID_0Corel-Layer"/>
  <path class="fil0" d="M124.26 24.89c19.84,1 37.2,15.47 39.44,35.48 2.64,23.7 -15.27,45.44 -39.42,45.68 -23.44,0.25 -44.85,-20.1 -41.64,-44.15 2.84,-21.25 19.25,-38.12 41.62,-37.01zm30.33 -13.41c18.26,10.49 30.27,28.62 30.66,49.48 0.68,36.69 -24.47,66.5 -60.97,66.63 -37.46,0.14 -65.87,-29.44 -62.81,-67.34 2.71,-33.47 28.13,-57.28 62.1,-56.81 10.55,0.15 19.42,1.37 31.02,8.04zm-27.7 136.65c-35.42,0.07 -56.66,11.24 -74.76,34.14 -6.56,8.29 -12.51,20.12 -15.5,30.44 -10.3,35.51 8.56,40.93 15.58,26.84 4.98,-9.98 3.83,-24.33 15.44,-41.87 12.63,-19.09 36.46,-28.33 60.15,-28.64 23.69,-0.31 43.33,11.54 55.76,31.52 9.44,15.17 10.15,27.73 15.88,39.06 7.46,14.74 26.64,8.73 10.16,-34.77 -13.06,-34.5 -47.29,-56.78 -82.71,-56.72z"/>
 </g>
</svg>
