<svg xmlns="http://www.w3.org/2000/svg" viewBox="0 0 250 250">
  <g id="Layer_x0020_1">
  <path fill="currentColor" d="M126.77 148.3c-35.88,0.06 -57.39,11.38 -75.73,34.57 -6.64,8.39 -12.67,20.38 -15.69,30.83 -6.12,21.16 -2.89,34.63 3.32,34.58l174.38 -1.29c6.21,-0.04 6.82,-16.61 -2.51,-41.25 -13.23,-34.94 -47.89,-57.51 -83.77,-57.44zm28.06 -138.41c18.49,10.62 30.65,28.98 31.04,50.11 0.7,37.16 -24.78,67.36 -61.75,67.49 -37.94,0.14 -66.71,-29.82 -63.61,-68.21 2.74,-33.9 28.48,-58.02 62.89,-57.54 10.69,0.15 19.68,1.39 31.43,8.15z"/>
 </g>
</svg>
