<svg xmlns="http://www.w3.org/2000/svg" viewBox="0 0 250 250">
  <g id="Layer_x0020_1">
  <path fill="currentColor" d="M101.34 79.65c4.01,-4.82 3.89,-19.25 13.15,-17.11 6.09,1.42 7.29,15.44 10.58,20.01 2.49,-4.79 1.89,-15 8.48,-15.94 6.94,-1 8.89,8.04 11.48,12.94 5.08,0.71 14.65,0.17 20.22,0.15 9.9,-0.04 8.1,8.12 2,8.47 -6.37,0.36 -13.84,-0.03 -20.34,0 -10.91,0.05 -7.1,-3.75 -11.95,-9.19 -1.54,7.08 -3.95,20.68 -12.42,16.61 -4.72,-2.27 -6.61,-16.42 -9.77,-20.44 -2.34,3.48 -2.77,10.59 -7.01,12.38 -2.88,1.21 -14.88,0.62 -18.77,0.64 -2.52,0.02 -5.95,0.49 -7.34,-2.2 -4.74,-9.22 15.56,-5.98 21.69,-6.32zm-38.74 58.84l-12.98 0c-3.48,0 -6.33,2.84 -6.33,6.32l0 22.07c-1.03,-1.52 -2.78,-2.52 -4.74,-2.52l-13.59 0c-3.15,0 -5.73,2.58 -5.73,5.73l0 15.51 -13.1 0c-2.5,0 -4.53,2.04 -4.53,4.53l0 7.38c0,2.49 2.03,4.53 4.53,4.53l13.1 0 0 14.97c0,3.15 2.58,5.73 5.73,5.73l13.59 0c1.96,0 3.71,-1 4.74,-2.52l0 19.93c0,3.48 2.85,6.33 6.33,6.33l12.98 0c3.48,0 6.33,-2.85 6.33,-6.33l0 -38.11 111.56 0 0 38.11c0,3.48 2.85,6.33 6.32,6.33l12.99 0c3.48,0 6.33,-2.85 6.33,-6.33l0 -19.93c1.03,1.52 2.77,2.52 4.74,2.52l13.59 0c3.15,0 5.73,-2.58 5.73,-5.73l0 -14.97 13.51 0c2.49,0 4.53,-2.04 4.53,-4.53l0 -7.38c0,-2.49 -2.04,-4.53 -4.53,-4.53l-13.51 0 0 -15.51c0,-3.15 -2.58,-5.73 -5.73,-5.73l-13.59 0c-1.97,0 -3.71,1 -4.74,2.52l0 -22.07c0,-3.48 -2.85,-6.32 -6.33,-6.32l-12.99 0c-3.47,0 -6.32,2.84 -6.32,6.32l0 40.79 -111.56 0 0 -40.79c0,-3.48 -2.85,-6.32 -6.33,-6.32zm4.34 -134.19c-26.69,4.53 -43.75,30.37 -37.11,56.75 3.33,13.22 10.1,19.5 19.25,28.77 15.96,16.17 32.27,32.08 48,48.58 3.92,4.12 8.21,7.89 12.24,12.02 15.31,15.7 14.31,18.51 26.48,6.27 3.98,-4.01 7.94,-8.39 12.03,-12.25 8.35,-7.89 16.2,-16.09 24.23,-24.29 7.81,-8 15.73,-16.58 23.93,-24.11 7.2,-6.6 17.86,-17.27 22.13,-25.9 11.77,-23.74 0.56,-53.63 -24.18,-63.26 -12.89,-5.02 -27.22,-4.09 -39.23,2.82 -9.49,5.46 -17.46,15.76 -25.33,23.33 -5.41,5.2 -9.34,-2.46 -13.33,-6.21 -4.18,-3.91 -8.15,-8.2 -12.28,-11.99 -9.71,-8.91 -23.93,-12.72 -36.83,-10.53z"/>
 </g>
</svg>
